<svg width="1117" height="358" viewBox="0 0 1117 358" fill="none" xmlns="http://www.w3.org/2000/svg">
<g clip-path="url(#clip0_1_652)">
<path d="M399.471 1.29233C410.737 4.19977 422.003 6.78416 433.913 7.10721C437.454 7.10721 440.673 7.10721 443.892 6.46111C441.639 5.81501 439.064 5.16892 436.81 4.84587C435.845 4.84587 434.879 4.84587 433.913 4.84587C425.544 4.52282 417.175 3.23062 409.128 1.29233C406.231 1.29233 403.656 0.969284 400.759 0.969284C400.115 1.29233 399.793 1.29233 399.471 1.29233Z" fill="#FF0000"/>
<path d="M390.458 4.19976C403.978 8.39939 418.141 12.599 432.626 13.5682C441.639 14.2143 449.364 12.9221 456.446 10.3377C455.158 10.0146 454.193 9.69158 452.905 9.04549C446.789 10.6607 440.351 11.6299 432.948 11.3068C418.463 10.3377 404.621 6.13805 391.102 1.93842C390.78 1.93842 390.136 1.61537 389.814 1.61537C387.883 1.61537 385.952 1.93842 384.02 1.93842C385.952 2.90757 388.205 3.55366 390.458 4.19976Z" fill="#FF0000"/>
<path d="M431.982 17.7677C417.819 16.4755 404.299 11.9528 391.424 7.7532C386.595 6.13796 381.767 4.52271 376.938 2.90747C375.007 3.23052 373.398 3.23052 371.788 3.55357C372.754 3.87662 373.72 4.19967 375.007 4.52271C380.157 6.13796 385.63 7.7532 390.78 9.69149C403.977 14.2142 417.497 18.7369 431.982 20.029C445.18 21.3212 455.802 18.4138 465.459 13.5681C464.493 13.245 463.528 12.922 462.562 12.5989C453.549 16.4755 444.214 18.7369 431.982 17.7677Z" fill="#FF0000"/>
<path d="M390.458 15.1833C403.334 20.029 416.853 24.8747 430.695 26.49C447.755 28.4283 459.665 23.9056 471.897 16.4755C470.931 16.1524 470.287 15.8294 469.322 15.5063C458.055 22.2904 446.789 26.49 430.695 24.5517C416.853 22.9365 403.656 18.0907 390.78 13.245C384.986 10.9837 379.192 9.04537 373.076 7.10707C370.501 6.13793 367.925 5.49183 365.35 4.84573C363.741 5.16878 362.131 5.49183 360.522 5.81488C364.385 6.78403 368.569 7.75317 372.754 9.04537C378.87 10.9837 384.986 12.9219 390.458 15.1833Z" fill="#FF0000"/>
<path d="M371.466 13.5682C377.904 15.8295 384.342 18.0909 390.458 20.6753C403.334 25.521 416.209 30.6898 430.373 32.9511C450.974 35.8585 463.849 29.0745 478.335 19.06C477.691 18.737 476.725 18.4139 476.081 18.0909C462.562 27.4593 450.008 33.5972 430.695 30.6898C416.853 28.7515 403.977 23.5827 391.424 18.737C385.308 16.1526 378.87 13.8913 372.11 11.6299C366.316 9.69163 360.522 8.39943 355.372 7.10724C353.762 7.43029 352.153 8.07638 350.543 8.39943C356.981 9.36858 364.063 11.3069 371.466 13.5682Z" fill="#FF0000"/>
<path d="M430.051 37.1506C416.531 34.8893 403.334 29.3975 391.102 24.2287C384.664 21.6443 377.582 18.7369 370.822 16.4755C361.488 13.245 352.796 11.3067 344.749 10.3376C343.14 10.9837 341.208 11.6298 339.599 12.2759C348.934 12.5989 359.234 14.5372 370.179 18.4138C376.938 20.6752 383.698 23.5826 390.458 26.167C403.012 31.3358 416.209 36.8276 430.051 39.0889C453.227 42.9655 467.39 34.2432 483.807 21.6443C483.163 21.3212 482.519 20.9982 481.554 20.6752C465.459 32.951 452.261 41.0272 430.051 37.1506Z" fill="#FF0000"/>
<path d="M368.891 23.5827C375.973 26.1671 383.054 28.7515 389.814 31.6589C402.69 36.8277 415.887 42.3195 429.729 44.9039C456.124 49.7497 470.931 38.766 489.601 24.8749C488.957 24.5519 488.313 24.2288 487.67 23.5827C469.644 36.8277 455.48 47.4883 430.373 42.6426C416.531 40.0582 403.334 34.5664 390.78 29.3976C384.02 26.4902 376.938 23.5827 369.857 21.3214C355.05 16.1526 342.496 14.5374 331.23 15.1834C329.298 16.1526 327.045 17.1217 325.114 17.7678C338.311 16.1526 351.831 17.7678 368.891 23.5827Z" fill="#FF0000"/>
<path d="M368.569 29.3978C375.651 31.6591 383.054 34.5665 390.136 37.474C403.012 42.6427 416.531 47.8115 430.373 50.719C455.48 55.8877 470.287 47.4885 489.923 33.9204C492.176 32.3052 494.429 30.6899 497.004 29.3978C496.361 29.0747 495.717 28.4286 495.073 28.1056C493.142 29.3977 490.888 30.6899 488.957 31.9821C469 45.5502 455.48 53.3033 431.016 48.4576C417.175 45.5502 403.977 40.3814 391.102 35.5357C384.02 32.6282 376.938 30.0438 369.535 27.4595C342.496 18.4141 325.114 20.6754 305.156 29.0747C301.294 31.336 297.753 33.9204 294.212 36.8279C319.642 23.5829 337.346 19.0602 368.569 29.3978Z" fill="#FF0000"/>
<path d="M282.624 51.6877C287.13 49.1033 291.637 46.1959 295.821 43.2885C302.903 38.4427 310.307 33.274 318.676 30.6896C335.736 25.1977 353.118 30.0435 369.857 35.5353C377.26 38.1197 384.986 40.7041 392.067 43.6115C404.621 48.4572 417.819 53.303 431.016 56.2104C454.193 61.3792 468.678 55.8874 490.245 42.9654C495.395 39.7349 499.901 37.1505 504.73 35.2122C504.086 34.5661 503.442 34.2431 502.798 33.92C498.614 35.8583 494.107 38.4427 489.279 41.3502C468.356 54.2721 454.193 59.4409 431.66 54.2721C418.463 51.3647 405.587 46.5189 393.033 41.6732C385.63 38.7658 378.226 35.8583 370.501 33.597C353.762 28.1052 335.736 23.2594 318.032 28.7513C309.341 31.6587 301.937 36.8275 294.534 41.6732C290.349 44.5806 285.843 47.4881 281.336 50.0725C279.727 51.0416 277.795 52.0108 275.864 52.6569C274.577 53.9491 273.289 55.2413 272.001 56.5334C275.864 54.9182 279.083 53.303 282.624 51.6877Z" fill="#FF0000"/>
<path d="M284.555 59.1178C289.706 56.5334 294.534 52.9799 299.04 49.7494C305.8 44.9037 312.56 40.0579 320.285 37.1505C337.024 31.3356 354.728 35.8583 371.466 41.3501C378.548 43.6115 385.308 45.8728 392.067 48.4572C425.866 60.41 455.158 70.7475 490.888 52.0107C498.614 47.8111 506.017 44.2576 513.099 41.9962C512.455 41.3501 511.811 41.0271 511.168 40.381C504.086 42.6423 497.326 46.1958 489.923 50.0724C455.158 68.4862 426.188 58.4717 393.033 46.5189C386.273 44.2576 379.514 41.6732 372.432 39.4118C355.372 33.92 337.346 29.3973 319.964 35.2122C311.916 38.1196 304.835 42.9654 298.075 47.8111C293.568 51.0416 288.74 54.5951 283.912 57.1795C277.796 60.41 271.68 62.6713 265.564 63.9635C264.92 64.9327 263.954 65.9018 263.31 66.5479C270.392 65.2557 277.474 62.9944 284.555 59.1178Z" fill="#FF0000"/>
<path d="M286.487 66.5481C291.959 63.6407 297.109 59.7641 302.259 56.2105C308.375 51.3648 315.135 46.5191 322.217 43.9347C338.633 37.7968 356.337 41.9964 372.754 47.1652C380.157 49.4265 387.561 52.0109 394.964 54.5953C426.832 65.902 457.09 76.2396 491.532 60.4102C502.798 55.2414 512.455 51.0418 521.79 49.4265C521.146 48.7804 520.502 48.1343 519.859 47.8113C510.524 49.7496 501.511 53.6261 490.566 58.7949C456.768 74.3013 427.154 63.9637 395.608 52.657C388.527 50.0726 381.123 47.4882 373.398 45.2269C356.337 40.0581 338.311 35.5354 321.251 41.9964C313.847 44.9038 307.088 49.7496 300.65 54.5953C295.821 58.1488 290.671 62.0254 285.199 64.9329C276.186 69.4555 267.495 71.7169 258.16 72.686C257.516 73.3321 256.872 74.3013 256.551 74.9474C267.173 73.9782 276.83 71.7169 286.487 66.5481Z" fill="#FF0000"/>
<path d="M288.418 73.9783C294.534 71.0708 300.006 66.5482 305.156 62.3485C311.272 57.5028 317.388 52.6571 324.148 50.0727C340.886 43.2887 359.556 47.8114 375.651 52.6571C384.02 55.2415 392.067 58.1489 400.115 60.7333C430.694 71.3939 459.665 81.7314 492.498 69.1326L495.073 68.1634C508.271 62.9946 518.893 58.795 530.803 58.472C530.159 57.8259 529.515 57.1798 528.872 56.5337C517.605 57.5028 506.983 61.3794 494.429 66.5482L491.854 67.5173C459.665 80.1162 431.016 69.7787 400.758 59.1181C392.711 56.2106 384.664 53.3032 376.295 51.0418C359.878 46.1961 340.886 41.3504 323.504 48.4575C316.423 51.3649 309.985 56.5337 303.869 61.0563C298.718 65.256 293.246 69.4556 287.452 72.363C276.186 77.8549 264.92 79.7932 253.654 79.7932C253.01 80.4393 252.688 81.0853 252.366 82.0545C263.954 81.7314 276.186 79.7932 288.418 73.9783Z" fill="#FF0000"/>
<path d="M289.706 81.4083C296.465 78.1778 301.937 73.6551 307.732 69.1324C313.847 64.2867 319.32 59.441 326.079 56.5335C342.174 49.4265 360.844 52.98 378.548 58.1488C387.561 60.7332 396.574 63.9636 405.587 67.1941C434.879 77.8547 462.24 87.5462 493.464 77.5317C495.717 76.8856 497.97 75.9164 500.223 75.2703C514.065 70.7477 525.653 66.8711 539.172 67.8402C538.529 67.1941 537.885 66.225 537.241 65.5789C524.043 65.2558 512.777 68.8094 499.258 73.3321C497.004 73.9782 494.751 74.9473 492.498 75.5934C462.24 85.2849 434.879 75.5934 405.909 65.2558C397.218 62.0254 387.883 58.7949 378.87 56.2105C360.844 51.0417 341.852 47.1651 325.114 54.5952C318.032 57.8257 311.916 62.6715 306.122 67.5172C300.65 72.0399 295.178 76.5625 288.74 79.793C275.542 86.254 262.345 87.2231 249.147 86.577C248.825 87.2231 248.181 87.8692 247.859 88.5153C261.701 89.1614 275.864 88.1923 289.706 81.4083Z" fill="#FF0000"/>
<path d="M290.993 88.8386C298.075 85.6081 304.191 81.0854 309.985 76.8858C315.779 72.3631 322.217 67.8405 328.976 64.933C343.14 58.7951 360.844 58.7951 383.376 64.61C393.999 67.5174 404.621 71.0709 414.6 74.9475C440.995 84.639 466.103 93.6843 494.751 85.9312C497.648 84.962 500.545 84.3159 503.442 83.3468C518.571 78.8241 530.803 75.2706 545.932 77.855C545.288 76.8858 544.644 76.2397 544.323 75.2706C529.516 73.3323 517.605 76.8858 502.798 81.4085C499.901 82.3776 497.004 83.0237 494.107 83.9929C465.781 91.7461 441.317 82.7007 415.244 73.3323C404.943 69.4557 394.642 65.9022 384.02 62.9947C361.166 57.1798 342.818 57.1798 328.333 63.3178C321.251 66.2252 314.813 71.0709 309.019 75.5936C303.225 79.7932 297.109 84.3159 290.349 87.5464C275.542 94.3304 260.735 94.6535 245.928 93.0382C245.606 93.6843 245.284 94.3304 244.641 94.9765C260.091 95.9457 275.542 95.6226 290.993 88.8386Z" fill="#FF0000"/>
<path d="M291.637 95.6227C299.04 92.7153 305.8 88.5156 312.238 84.316C318.676 80.1164 325.114 75.9167 332.195 73.0093C352.153 65.2561 373.719 67.5175 388.205 70.7479C400.115 73.3323 411.381 77.532 422.325 81.7316C446.467 90.777 469.322 99.1762 496.039 92.7153C499.258 92.0692 502.477 91.1 505.695 90.1309C522.112 85.9312 535.31 82.7007 552.37 86.2543C551.726 85.2851 551.404 84.639 550.76 83.6699C534.022 80.4394 520.502 83.9929 505.052 87.8695C501.833 88.5156 498.614 89.4848 495.395 90.1309C469.322 96.2688 446.789 87.8695 422.969 79.1472C412.025 74.9476 400.437 70.748 388.526 68.1636C373.719 64.61 351.509 62.3487 331.23 70.4249C323.826 73.3323 317.388 77.532 310.628 81.7316C304.191 85.9312 297.753 90.1309 290.671 93.0383C274.255 99.4993 258.482 99.4993 242.387 97.2379C242.065 97.884 241.743 98.5301 241.422 99.1762C258.16 102.407 274.577 102.407 291.637 95.6227Z" fill="#FF0000"/>
<path d="M506.661 95.9454C503.12 96.5915 499.901 97.5607 496.039 98.2068C471.897 103.052 451.296 95.2993 429.729 86.9001C417.819 82.3774 405.587 77.8547 392.711 75.2703C362.131 69.4554 341.208 78.8238 317.066 89.4844C308.697 93.038 300.006 96.9146 290.671 100.468C272.967 106.606 256.551 105.96 239.812 103.699C239.49 104.345 239.168 104.991 238.846 105.637C255.907 108.221 272.967 108.867 291.315 102.406C300.972 99.1759 309.663 95.2993 318.032 91.4227C341.852 80.7621 362.453 71.7168 392.389 77.5316C405.265 80.116 417.497 84.6387 429.085 88.8383C451.296 97.2376 472.219 104.991 496.683 100.145C500.223 99.4989 503.764 98.5298 507.305 97.8837C524.043 94.3302 538.207 91.0997 556.876 95.6224C557.198 95.6224 557.52 95.9454 557.842 95.9454C557.52 94.9763 556.876 94.3302 556.555 93.361C537.885 89.1614 523.4 92.3919 506.661 95.9454Z" fill="#FF0000"/>
<path d="M508.593 103.699C504.73 104.345 500.867 104.991 497.004 105.637C474.794 109.19 455.802 102.083 435.201 94.3302C422.647 89.8075 409.772 84.9618 396.252 82.7005C366.638 78.1778 343.14 87.2232 318.676 96.9146C309.663 100.468 300.006 104.345 290.027 107.252C272.001 112.744 255.907 112.098 237.237 109.19C236.915 109.837 236.593 110.483 236.271 111.129C255.263 114.036 271.68 115.005 290.349 109.19C300.328 105.96 309.985 102.406 319.32 98.8529C343.784 89.1614 366.638 80.1161 395.93 84.9618C409.128 87.2231 422.003 91.7458 434.235 96.5916C453.871 104.022 474.472 111.452 497.004 107.898C501.189 107.252 505.052 106.606 508.593 105.96C525.009 103.053 539.172 100.468 557.198 104.668C558.808 104.991 560.417 105.314 562.027 105.96C561.705 104.991 561.383 104.345 560.739 103.376C559.773 103.053 558.486 102.729 557.52 102.729C539.494 98.2068 525.009 100.791 508.593 103.699Z" fill="#FF0000"/>
<path d="M510.524 111.452C506.339 112.098 502.155 112.744 497.648 113.39C477.047 115.975 459.021 109.191 440.029 102.084C427.154 97.2379 413.634 92.3922 399.471 90.4539C370.501 86.9003 346.037 95.2996 319.963 104.345C309.985 107.898 299.362 111.452 288.74 114.359C270.714 119.205 252.366 118.559 234.34 116.621C234.018 117.267 233.696 117.913 233.696 118.559C252.044 120.497 271.036 121.143 289.384 116.298C300.006 113.39 310.629 109.837 320.929 106.283C346.681 97.2379 371.144 88.8386 399.471 92.3922C413.312 94.0074 426.832 99.1762 439.707 103.699C458.055 110.483 477.369 117.59 498.292 115.006C502.798 114.359 507.305 113.713 511.489 113.067C527.584 110.806 541.104 108.868 558.486 112.421C561.383 113.067 563.958 113.713 566.855 114.359C566.533 113.39 566.211 112.744 565.889 111.775C563.636 111.129 561.383 110.806 559.13 110.16C540.782 106.929 526.618 108.868 510.524 111.452Z" fill="#FF0000"/>
<path d="M513.099 119.205C508.271 119.851 503.442 120.174 498.292 120.82C478.978 122.436 461.918 115.975 443.892 109.514C430.694 104.668 416.853 99.4992 402.368 97.8839C374.685 94.9765 348.29 103.053 322.539 111.129C310.95 114.682 299.04 118.559 287.452 121.143C269.104 125.343 250.756 124.374 232.409 122.113C232.087 122.759 231.765 123.405 231.765 124.051C250.113 126.312 269.104 127.281 287.774 123.082C299.684 120.497 311.594 116.621 323.182 113.067C348.612 104.991 375.007 96.9148 402.368 99.8222C416.531 101.437 430.373 106.283 443.57 111.129C460.952 117.59 478.978 124.051 498.936 122.759C504.086 122.436 509.236 121.79 514.065 121.143C528.872 119.528 542.713 117.913 559.13 121.143C562.67 121.79 566.211 122.759 570.074 123.405C569.752 122.759 569.43 121.79 569.43 121.143C566.211 120.497 562.992 119.851 559.773 119.205C542.391 115.975 528.228 117.59 513.099 119.205Z" fill="#FF0000"/>
<path d="M515.03 126.635C509.88 126.958 504.408 127.604 498.614 127.927C480.588 128.897 464.171 123.082 447.111 116.944C433.592 112.098 419.428 106.929 404.299 105.96C375.651 103.699 346.681 111.452 318.676 119.205C307.732 122.112 296.465 125.343 285.521 127.604C266.851 131.481 248.503 130.512 230.155 128.25C229.834 128.897 229.834 129.543 229.512 130.512C248.181 132.773 266.851 134.065 285.843 129.866C296.787 127.604 308.053 124.374 318.998 121.466C347.003 114.036 375.651 105.96 403.977 108.221C418.785 109.514 432.626 114.359 446.145 119.205C462.562 125.02 479.622 131.158 498.292 130.189C504.086 129.866 509.558 129.543 514.709 128.897C529.194 127.604 543.035 126.312 558.808 129.22C562.992 129.866 567.177 130.835 571.362 131.481C571.04 130.835 571.04 129.866 570.718 129.22C566.855 128.573 562.992 127.927 559.13 127.281C543.679 124.374 529.838 125.343 515.03 126.635Z" fill="#FF0000"/>
<path d="M512.455 133.419C508.271 133.742 503.764 134.388 499.58 134.711C480.91 136.327 464.171 130.835 446.467 125.343C433.27 121.143 419.75 116.944 405.587 115.651C372.11 112.744 337.668 120.82 304.513 128.25C297.753 129.866 290.993 131.481 284.233 132.773C265.886 136.65 247.216 136.327 228.868 134.711C228.546 135.357 228.546 136.004 228.224 136.973C246.894 138.588 265.564 139.234 284.555 135.034C291.315 133.742 298.075 132.127 304.835 130.512C337.989 123.082 372.432 115.005 405.265 117.913C419.106 119.205 432.626 123.405 445.502 127.281C462.562 132.773 480.588 138.265 499.58 136.65C504.086 136.327 508.593 135.681 512.777 135.357C528.55 133.742 543.357 132.127 560.417 135.357C564.602 136.004 569.108 136.973 573.615 137.619C573.293 136.973 573.293 136.004 572.971 135.357C568.787 134.711 564.924 134.065 560.739 133.419C543.357 130.189 528.228 131.804 512.455 133.419Z" fill="#FF0000"/>
<path d="M508.593 139.88C505.696 140.203 502.799 140.526 499.58 140.849C480.588 143.111 461.918 137.942 443.892 133.096C431.338 129.543 418.141 125.989 404.943 125.02C365.35 121.79 322.217 129.22 281.336 138.265C263.31 142.142 244.963 142.142 226.615 141.172C226.615 141.819 226.293 142.465 226.293 143.434C244.641 144.403 263.31 144.403 281.98 140.526C322.539 131.804 365.672 124.051 404.943 127.604C418.141 128.574 431.017 132.127 443.57 135.681C461.596 140.526 480.588 145.695 499.902 143.434C502.799 143.111 506.018 142.788 508.915 142.465C526.941 140.203 542.713 138.265 561.383 141.495C565.89 142.142 570.396 143.111 574.581 143.757C574.581 143.111 574.259 142.142 573.937 141.495C570.074 140.849 565.89 140.203 561.705 139.557C542.713 135.681 526.941 137.619 508.593 139.88Z" fill="#FF0000"/>
<path d="M562.992 144.403C541.748 141.172 524.043 143.757 503.764 146.664L500.545 147.31C480.588 150.218 460.952 145.695 441.639 141.172C429.407 138.265 417.175 135.68 404.621 134.388C365.35 131.158 319.964 134.388 279.405 143.111C261.701 146.987 243.675 147.633 225.971 147.633C225.971 148.279 225.649 148.925 225.649 149.895C243.675 150.218 262.023 149.248 280.049 145.372C320.285 136.65 365.672 133.419 404.621 136.65C417.175 137.619 429.407 140.526 441.317 143.111C460.631 147.633 480.588 152.156 500.867 149.248L504.086 148.602C524.365 145.695 541.748 143.111 562.671 146.341C566.211 146.987 569.752 147.31 573.293 147.956C573.937 147.956 574.902 148.279 575.546 148.279C575.546 147.633 575.224 146.664 575.224 146.018C574.581 146.018 574.259 145.695 573.615 145.695C570.074 145.695 566.533 145.049 562.992 144.403Z" fill="#FF0000"/>
<path d="M500.867 153.771C479.944 157.325 458.699 153.448 437.776 149.572C426.51 147.31 414.922 145.372 403.334 144.403C351.187 140.203 309.663 141.495 276.508 148.925C259.126 152.802 241.744 154.417 224.683 154.74C224.683 155.386 224.361 156.033 224.361 157.002C241.744 156.679 259.126 155.063 277.152 151.187C310.307 144.08 351.509 142.464 403.334 146.664C414.6 147.633 426.188 149.895 437.454 151.833C458.377 155.709 479.944 159.909 501.189 156.033C527.584 151.51 551.726 153.125 576.834 156.033C576.834 155.386 576.512 154.417 576.512 153.771C551.404 150.864 527.262 148.925 500.867 153.771Z" fill="#FF0000"/>
<path d="M501.189 160.232C478.657 164.755 455.48 161.524 432.626 157.971C422.647 156.356 412.669 155.063 402.69 154.094C398.827 153.771 394.643 153.448 390.458 153.125C353.118 149.895 310.629 146.341 274.255 154.094C257.194 157.971 240.134 159.909 223.718 161.201C223.718 161.847 223.718 162.493 223.396 163.463C240.134 162.17 257.194 160.232 274.898 156.356C310.95 148.279 353.118 152.156 390.458 155.386C394.643 155.709 398.505 156.033 402.69 156.356C412.669 157.325 422.647 158.617 432.626 160.232C455.48 163.786 478.978 167.339 501.833 162.493C528.228 157.002 552.692 158.294 577.478 161.201C577.478 160.555 577.156 159.586 577.156 158.94C552.37 156.033 527.906 154.417 501.189 160.232Z" fill="#FF0000"/>
<path d="M501.833 166.693C477.369 172.508 450.974 169.278 425.544 166.37C417.819 165.401 409.772 164.432 401.724 163.786C392.067 162.817 382.089 161.847 371.466 160.555C337.989 156.679 303.547 152.802 272.323 159.586C254.941 163.463 238.525 166.37 222.752 167.985C222.752 168.631 222.752 169.601 222.752 170.247C238.847 168.308 255.263 165.401 272.967 161.524C303.547 154.74 337.989 158.617 371.144 162.494C381.767 163.786 391.746 164.755 401.402 165.724C409.128 166.37 417.175 167.339 425.222 168.308C450.974 171.216 477.369 174.446 502.477 168.631C528.872 162.494 553.336 163.463 577.8 166.37C577.8 165.724 577.8 164.755 577.478 164.109C553.014 161.201 528.55 160.232 501.833 166.693Z" fill="#FF0000"/>
<path d="M506.661 172.185C478.656 179.615 450.974 177.031 422.003 174.446C414.922 173.8 407.84 173.154 400.758 172.508C388.205 171.539 375.329 169.6 361.488 167.662C329.942 163.139 297.109 158.294 267.817 166.047C252.366 170.246 237.559 173.154 223.074 175.415C223.074 176.061 223.074 177.031 223.074 177.677C237.559 175.415 252.688 172.508 268.461 168.308C297.431 160.555 329.942 165.401 361.488 169.923C375.329 171.862 388.205 173.8 400.758 174.769C407.84 175.415 414.922 176.061 422.003 176.707C451.296 179.292 478.978 181.876 507.627 174.446C532.412 167.985 555.267 168.631 578.765 171.216C578.765 170.57 578.765 169.6 578.765 168.954C554.623 166.37 531.447 165.724 506.661 172.185Z" fill="#FF0000"/>
<path d="M508.27 178.323C474.15 187.045 440.995 184.784 405.909 182.199L400.115 181.876C385.951 180.907 371.144 178 356.659 175.415C326.723 169.924 295.5 164.432 266.851 172.185C251.078 176.385 236.593 179.615 223.074 181.876C223.074 182.522 223.074 183.492 223.074 184.138C236.915 181.876 251.4 178.646 267.495 174.123C295.821 166.37 326.723 171.862 356.337 177.354C370.822 179.938 385.951 182.846 400.115 183.815L405.909 184.138C441.317 186.722 474.794 189.307 508.914 180.261C533.056 173.8 555.911 173.8 578.443 175.738C578.443 175.092 578.443 174.123 578.443 173.477C555.589 171.862 532.734 171.862 508.27 178.323Z" fill="#FF0000"/>
<path d="M510.202 184.461C470.931 194.798 432.304 193.829 399.471 191.245C384.02 189.953 367.925 186.399 352.796 183.169C324.47 176.708 295.178 170.247 266.529 178.323C251.4 182.522 237.237 186.076 223.396 188.66C223.396 189.307 223.396 190.276 223.396 190.922C237.237 188.337 251.4 184.784 266.851 180.584C295.178 172.831 324.148 179.292 352.153 185.43C367.604 188.983 383.698 192.537 399.149 193.506C431.982 195.767 470.931 197.06 510.524 186.399C534.022 180.261 556.233 179.292 578.121 180.907C578.121 180.584 578.121 179.938 578.121 179.615C578.121 179.292 578.121 178.969 578.121 178.969C556.233 177.354 534.022 178.323 510.202 184.461Z" fill="#FF0000"/>
<path d="M348.934 193.183C365.028 197.706 381.445 202.229 398.505 203.198C407.196 203.844 415.887 204.167 424.578 204.167C454.514 204.167 483.485 200.29 512.455 192.214C535.631 186.076 556.876 184.461 578.121 185.43C578.121 184.784 578.121 184.138 578.121 183.169C556.876 182.523 535.31 184.138 511.811 190.599C474.472 200.613 437.454 204.167 398.505 201.259C381.767 199.967 365.35 195.445 349.256 191.245C322.539 183.815 294.856 176.385 265.564 184.784C250.756 188.984 236.915 192.86 223.396 195.768C223.396 196.414 223.396 197.06 223.718 198.029C237.559 195.122 251.4 191.245 266.207 187.045C294.856 178.323 321.251 185.753 348.934 193.183Z" fill="#FF0000"/>
<path d="M513.743 196.737C468.678 209.013 432.948 213.535 398.183 210.951C380.479 209.659 363.741 204.167 347.324 198.998C320.607 190.276 295.178 182.2 265.242 190.922C257.838 193.183 251.078 195.768 244.319 198.352C237.559 200.936 231.121 203.198 224.361 205.459C224.361 206.105 224.683 206.751 224.683 207.72C231.765 205.782 238.525 203.198 245.284 200.613C252.044 198.029 258.804 195.445 266.207 193.506C295.5 185.107 320.285 193.183 347.002 201.582C363.419 206.751 380.157 212.243 398.183 213.535C404.621 213.858 411.059 214.181 417.497 214.181C446.467 214.181 477.369 209.336 514.387 199.321C536.919 193.183 557.52 191.245 577.799 191.568C577.799 190.922 577.799 190.276 577.799 189.307C557.52 188.337 536.597 190.276 513.743 196.737Z" fill="#FF0000"/>
<path d="M515.996 202.874C475.76 214.181 439.064 223.227 399.149 220.319C380.157 219.027 363.419 212.566 347.003 206.428C320.929 196.737 296.465 187.691 265.886 196.737C258.16 198.998 250.757 201.905 243.675 204.813C237.559 207.397 231.765 209.659 225.649 211.597C225.649 212.243 225.971 212.889 225.971 213.858C232.409 211.92 238.525 209.335 244.319 207.074C251.4 204.167 258.482 201.259 266.207 198.998C296.143 189.953 320.607 198.998 346.037 208.366C362.453 214.504 379.514 220.965 398.827 222.257C403.978 222.58 409.128 222.904 414.278 222.904C448.721 222.904 480.91 214.827 516.318 204.813C536.919 198.998 556.877 196.09 577.478 196.09C577.478 195.444 577.478 194.798 577.8 193.829C556.877 193.829 536.597 197.06 515.996 202.874Z" fill="#FF0000"/>
<path d="M507.305 211.92C471.897 222.258 438.742 231.949 401.08 229.365C381.445 228.073 364.063 220.642 347.324 213.858C321.573 203.198 297.431 193.183 265.885 203.198C257.838 205.782 250.435 209.013 243.031 211.92C237.881 214.182 232.409 216.443 226.615 218.381C226.615 219.027 226.936 219.673 226.936 220.643C232.73 218.704 238.203 216.12 243.675 213.858C251.078 210.628 258.482 207.721 266.207 205.136C297.109 195.445 320.929 205.459 346.359 215.797C363.097 222.904 380.479 230.011 400.758 231.303C405.265 231.626 409.45 231.626 413.956 231.626C446.467 231.626 476.403 222.904 507.627 213.858C511.168 212.889 514.709 211.92 518.249 210.628C538.529 204.813 557.842 201.583 576.834 200.937C576.834 200.29 577.156 199.644 577.156 198.675C557.842 199.321 538.207 202.552 517.927 208.367C514.387 209.982 510.846 210.951 507.305 211.92Z" fill="#FF0000"/>
<path d="M502.798 220.319C471.253 230.334 438.742 240.348 404.621 237.118C384.986 235.179 367.925 227.749 351.509 220.642C326.401 209.659 302.903 199.321 271.036 207.72C261.379 210.305 252.366 214.181 243.353 218.058C238.525 220.319 233.374 222.258 228.546 224.196C228.868 224.842 228.868 225.488 229.19 226.134C234.34 224.196 239.49 221.934 244.319 219.673C253.01 215.797 262.345 211.92 271.68 209.336C302.581 200.936 326.079 211.274 350.543 221.934C366.96 229.042 384.02 236.795 404.299 238.733C409.128 239.056 413.634 239.379 418.463 239.379C448.077 239.379 476.081 230.657 503.442 221.934C507.949 220.642 512.455 219.027 517.284 217.735C537.885 211.597 557.52 207.72 576.19 206.751C576.19 206.105 576.512 205.136 576.512 204.49C557.198 205.459 537.241 209.336 516.64 215.474C511.811 217.412 507.305 219.027 502.798 220.319Z" fill="#FF0000"/>
<path d="M498.292 228.719C469 238.41 438.42 248.101 406.874 243.579C387.883 240.671 371.466 233.564 355.694 226.457C329.62 214.827 304.834 203.521 272.001 212.889C262.345 215.797 252.688 219.996 243.675 223.873C239.168 225.811 234.662 228.072 229.834 229.688C230.155 230.334 230.155 230.98 230.477 231.626C235.306 229.688 239.812 227.749 244.319 225.488C253.332 221.288 262.667 217.089 272.323 214.504C304.513 205.459 328.976 216.12 354.728 227.749C370.822 234.856 387.239 242.287 406.553 245.194C412.347 246.163 417.819 246.486 423.613 246.486C449.686 246.486 474.794 238.41 499.258 230.334C505.695 228.072 512.455 226.134 519.215 224.196C539.172 218.381 557.842 214.504 575.546 213.212C575.546 212.566 575.868 211.597 575.868 210.951C557.842 212.243 538.85 216.12 518.571 222.258C511.49 224.519 505.052 226.457 498.292 228.719Z" fill="#FF0000"/>
<path d="M496.361 236.149C468.034 245.84 439.064 255.532 409.128 249.717C391.424 246.163 375.651 239.056 360.522 231.949C333.483 219.35 307.732 207.72 272.967 218.058C262.988 220.965 253.332 225.488 244.319 229.688C240.134 231.626 235.949 233.564 231.765 235.18C232.087 235.826 232.087 236.472 232.409 237.118C236.593 235.18 241.1 233.241 245.284 231.303C254.297 227.103 263.954 222.581 273.611 219.673C307.41 209.659 332.839 221.289 359.556 233.564C375.007 240.671 390.78 247.779 408.806 251.332C415.244 252.624 421.682 253.27 427.797 253.27C451.618 253.27 474.472 245.517 497.004 237.764C504.73 235.18 512.455 232.595 520.181 230.334C535.31 225.811 553.658 221.289 573.615 219.027C573.937 218.381 573.937 217.412 574.259 216.766C553.979 218.704 534.988 223.55 519.537 228.073C512.133 230.98 504.086 233.564 496.361 236.149Z" fill="#FF0000"/>
<path d="M495.395 243.256C468.034 252.947 439.708 263.285 411.059 256.178C394.321 251.978 379.514 244.871 365.028 238.087C336.702 224.519 310.307 211.92 273.611 223.227C263.632 226.457 253.975 230.98 244.641 235.179C240.778 236.795 237.237 238.733 233.374 240.348C233.696 240.994 234.018 241.64 234.018 242.286C237.881 240.671 241.744 238.733 245.606 237.118C254.941 232.918 264.598 228.395 274.255 225.165C309.985 213.858 336.38 226.457 364.063 239.702C378.548 246.486 393.355 253.593 410.415 258.116C417.497 259.731 424.257 260.7 431.016 260.7C453.227 260.7 474.794 252.947 496.039 245.194C504.408 242.286 513.099 239.056 521.468 236.472C536.919 231.949 554.301 227.426 572.005 225.165C572.327 224.519 572.327 223.55 572.649 222.904C554.301 225.165 536.597 229.688 520.825 234.21C512.777 237.118 503.764 240.348 495.395 243.256Z" fill="#FF0000"/>
<path d="M275.22 230.657C313.204 218.381 340.243 231.949 368.569 246.163C382.089 252.947 395.93 260.054 411.703 264.9C418.784 267.161 426.188 268.13 433.27 268.13C454.193 268.13 475.116 260.054 495.717 252.624C505.052 249.07 514.065 245.84 522.756 243.256C538.207 238.733 554.301 234.533 570.396 232.272C570.718 231.626 570.718 230.657 571.04 230.011C554.301 232.272 537.563 236.472 522.112 241.317C513.421 243.902 504.408 247.132 495.073 250.686C468.034 261.023 439.708 271.684 412.347 263.285C396.574 258.439 382.733 251.332 369.535 244.548C340.565 230.011 313.204 216.12 274.577 228.718C264.276 231.949 254.619 236.795 245.284 241.317C242.065 242.933 238.847 244.225 235.628 245.84C235.949 246.486 236.271 247.132 236.593 247.778C239.812 246.163 243.031 244.548 246.25 243.256C255.263 238.41 264.92 233.887 275.22 230.657Z" fill="#FF0000"/>
<path d="M523.4 247.132C514.387 249.716 505.052 253.593 495.395 257.47C468.034 268.13 440.029 279.437 413.634 269.746C399.149 264.577 386.273 257.47 374.041 251.009C344.427 235.179 316.423 220.319 274.899 234.21C264.276 237.441 254.297 242.286 244.641 247.132C242.387 248.424 239.812 249.393 237.559 250.686C237.881 251.332 238.203 251.978 238.525 252.624C241.1 251.332 243.353 250.363 245.606 249.07C255.263 244.225 264.92 239.379 275.22 235.825C315.779 222.257 342.174 236.148 372.432 252.624C384.986 259.408 397.862 266.192 412.347 271.361C419.75 273.945 427.154 275.237 434.879 275.237C455.158 275.237 475.76 267.161 495.717 259.085C505.374 255.208 514.709 251.655 523.722 249.07C538.529 244.871 553.336 240.994 568.143 238.41C568.465 237.764 568.787 236.795 568.787 236.148C553.658 238.733 537.885 242.932 523.4 247.132Z" fill="#FF0000"/>
<path d="M494.751 264.254C468.678 274.914 438.742 287.19 413.312 276.53C399.471 270.715 387.561 263.931 375.973 257.147C346.037 239.702 319.964 224.519 275.864 239.379C265.242 242.933 254.941 248.101 245.284 253.27C243.675 254.239 241.744 254.885 240.134 255.854C240.456 256.501 240.778 257.147 241.1 257.793C242.709 256.824 244.641 256.178 246.25 255.208C255.907 250.363 266.207 245.194 276.508 241.64C319.642 226.78 345.393 241.963 374.685 259.085C386.273 265.869 398.505 272.976 412.347 278.791C419.75 281.698 427.154 282.991 434.879 282.991C455.158 282.991 476.081 274.268 495.395 266.515C505.374 262.315 515.03 258.439 524.043 255.854C537.885 251.978 552.048 248.424 565.568 245.84C565.889 245.194 566.211 244.225 566.533 243.579C552.048 246.163 537.563 249.717 523.4 253.916C514.387 256.501 504.73 260.377 494.751 264.254Z" fill="#FF0000"/>
<path d="M523.078 261.347C514.065 263.931 504.73 267.484 494.751 271.361C467.068 282.022 438.42 293.328 412.347 282.991C400.759 278.145 389.492 271.038 378.87 263.931C368.891 257.47 358.591 250.686 347.646 245.84C326.723 236.795 302.903 236.795 276.508 245.84C265.886 249.394 255.585 254.886 245.928 260.054C244.641 260.7 243.675 261.347 242.387 261.993C242.709 262.639 243.031 263.285 243.353 263.931C244.641 263.285 245.606 262.639 246.894 261.993C256.551 256.824 266.851 251.655 277.152 248.102C302.903 239.379 326.079 239.379 346.681 248.102C357.303 252.624 367.604 259.408 377.582 265.869C388.527 272.976 399.471 280.406 411.381 285.252C418.785 288.16 426.51 289.452 434.557 289.452C454.836 289.452 476.081 281.376 495.395 273.945C505.374 270.069 514.709 266.515 523.4 263.931C536.275 260.377 549.151 257.147 562.027 254.563C562.349 253.916 562.67 252.947 562.992 252.301C549.473 254.239 535.953 257.793 523.078 261.347Z" fill="#FF0000"/>
<path d="M522.112 269.1C513.421 271.361 504.086 274.915 494.429 278.145C466.425 288.16 437.454 298.82 411.059 288.806C399.471 284.283 388.848 276.853 378.87 269.423C369.535 262.639 360.2 255.855 349.899 251.332C324.792 240.025 297.109 245.517 278.439 251.978C267.495 255.532 257.516 261.024 247.538 266.192C246.894 266.515 246.25 266.839 245.928 267.162C246.25 267.808 246.572 268.454 246.894 269.1C247.538 268.777 248.181 268.454 248.503 268.131C258.482 262.962 268.461 257.793 279.083 253.917C297.431 247.456 324.47 242.287 348.934 253.27C359.234 257.793 368.569 264.577 377.582 271.038C387.883 278.468 398.505 286.221 410.415 290.744C418.141 293.652 426.188 294.944 434.235 294.944C454.515 294.944 475.759 287.191 495.073 280.084C504.73 276.53 513.743 273.299 522.756 271.038C534.666 267.808 546.254 264.9 557.842 262.639C558.164 261.67 558.808 261.024 559.13 260.054C546.898 262.639 534.666 265.869 522.112 269.1Z" fill="#FF0000"/>
<path d="M520.824 277.176C512.133 279.437 503.442 282.345 494.107 285.575C465.781 294.943 436.489 304.958 409.772 294.943C398.183 290.744 388.205 282.991 378.226 275.561C369.535 269.1 360.844 262.316 350.865 257.793C326.723 246.809 299.04 252.301 280.049 258.762C269.104 262.316 259.126 267.807 249.147 272.976C249.469 273.622 249.791 274.268 250.435 274.914C260.091 269.746 270.392 264.577 281.014 261.023C299.684 254.562 326.723 249.394 350.221 260.054C359.878 264.577 368.569 271.038 377.26 277.499C387.239 284.929 397.54 292.682 409.128 297.205C417.175 300.112 425.544 301.404 434.235 301.404C454.515 301.404 475.76 294.297 495.073 287.836C504.408 284.606 513.421 281.698 521.79 279.437C531.769 276.853 542.391 274.268 553.336 272.007C553.979 271.038 554.301 270.392 554.945 269.423C542.713 271.684 531.447 274.591 520.824 277.176Z" fill="#FF0000"/>
<path d="M522.756 283.96C514.065 286.221 505.052 288.806 495.717 291.713C466.103 301.081 435.523 310.45 407.196 300.112C395.608 295.913 385.63 288.159 375.973 281.052C369.213 276.207 362.453 270.715 355.05 266.838C325.757 250.363 290.671 261.347 276.83 266.515C268.461 269.746 260.091 273.945 252.366 278.145C252.688 278.791 253.01 279.437 253.654 280.083C261.379 275.884 269.426 272.007 277.795 268.777C291.315 263.608 325.757 252.947 354.406 268.777C361.809 272.976 368.569 278.145 375.007 282.991C384.664 290.421 394.642 297.851 406.874 302.374C415.887 305.604 425.222 306.896 434.557 306.896C455.158 306.896 476.403 300.435 496.682 293.974C506.017 291.067 514.708 288.159 523.4 286.221C531.447 284.283 539.494 282.345 547.22 280.729C547.863 279.76 548.507 279.114 549.151 278.145C539.816 279.76 531.125 281.699 522.756 283.96Z" fill="#FF0000"/>
<path d="M520.824 291.39C512.777 293.328 504.408 295.59 495.717 298.174C465.781 306.896 434.879 315.942 405.265 305.927C393.355 301.728 383.376 294.298 374.041 287.191C367.604 282.345 361.166 277.176 353.762 273.299C325.436 257.47 290.671 268.131 277.152 273.622C269.748 276.53 262.667 280.083 255.907 283.637C256.229 284.283 256.872 284.929 257.194 285.252C263.954 281.699 270.714 278.468 278.117 275.561C291.637 270.392 325.436 259.731 353.118 275.238C360.2 279.114 366.96 284.283 373.076 289.129C382.732 296.559 392.711 303.989 404.943 308.189C414.6 311.419 424.257 312.711 433.913 312.711C454.836 312.711 476.081 306.573 496.682 300.435C505.374 297.851 513.421 295.59 521.468 293.651C528.228 292.036 534.666 290.421 541.104 289.129C541.747 288.16 542.391 287.514 543.035 286.544C535.953 287.837 528.55 289.775 520.824 291.39Z" fill="#FF0000"/>
<path d="M518.571 299.143C511.168 300.758 503.442 303.02 496.039 304.958C465.459 313.357 434.235 321.756 403.656 311.742C391.424 307.865 382.411 300.758 372.432 293.005C366.316 288.159 359.878 283.314 352.796 279.437C325.114 263.931 290.671 274.591 276.83 279.76C270.714 282.021 264.598 284.929 259.126 287.836C259.448 288.482 260.091 289.129 260.413 289.452C265.886 286.544 271.68 283.96 277.796 281.698C290.993 276.53 325.114 266.192 351.831 281.052C358.912 284.929 365.028 289.775 371.144 294.62C380.479 302.05 390.458 309.481 403.012 313.68C412.99 316.911 422.969 318.203 433.27 318.203C454.515 318.203 475.759 312.388 496.682 306.896C504.086 304.958 511.811 302.697 518.893 301.081C523.721 300.112 528.55 298.82 533.056 297.851C533.7 296.882 534.666 295.913 535.31 295.266C530.159 296.559 524.687 297.851 518.571 299.143Z" fill="#FF0000"/>
<path d="M516.318 307.542C509.88 308.834 503.12 310.773 496.361 312.388C465.459 319.818 433.913 327.894 402.69 318.203C390.78 314.649 381.445 307.865 371.466 300.758C365.35 296.558 359.234 292.036 352.475 288.159C325.114 273.299 290.671 283.637 277.152 288.482C272.645 290.098 268.461 292.036 264.276 293.974C264.598 294.62 265.242 295.266 265.564 295.589C269.426 293.651 273.611 292.036 277.796 290.421C290.993 285.575 324.792 275.56 351.509 290.098C358.269 293.651 364.385 298.174 370.501 302.373C380.157 309.157 390.136 316.265 402.368 320.141C412.669 323.372 423.291 324.664 433.913 324.664C455.158 324.664 476.403 319.495 497.326 314.326C503.764 312.711 510.524 311.096 517.284 309.48C519.859 308.834 522.112 308.511 524.687 307.865C525.653 306.896 526.618 305.927 527.584 304.958C523.4 305.927 519.859 306.573 516.318 307.542Z" fill="#FF0000"/>
<path d="M513.743 315.619C507.949 316.911 501.833 318.203 496.039 319.495C465.137 326.279 432.948 333.063 401.402 324.341C389.492 321.111 379.836 315.296 369.857 308.835C363.741 305.281 357.625 301.405 350.865 298.174C325.436 285.898 296.465 291.39 276.508 298.174C274.255 298.82 272.002 299.789 269.748 300.759C270.392 301.405 270.714 302.051 271.358 302.374C273.289 301.728 275.22 301.082 277.152 300.436C296.787 293.651 325.114 288.483 349.899 300.112C356.337 303.343 362.775 306.896 368.569 310.773C378.548 316.911 388.849 323.049 400.759 326.279C411.703 329.187 422.325 330.479 433.27 330.479C454.515 330.479 475.76 325.956 496.361 321.434C501.511 320.141 506.983 319.172 512.455 318.203C513.743 317.234 514.709 316.265 515.996 315.296C515.352 315.296 514.709 315.619 513.743 315.619Z" fill="#FF0000"/>
<path d="M493.463 327.248C462.884 332.74 431.66 338.878 400.758 331.125C389.492 328.218 378.87 323.049 368.891 317.557C362.131 314.003 355.05 310.45 347.646 307.542C328.011 299.789 305.8 299.789 280.049 306.896C279.083 307.219 278.117 307.542 277.152 307.866C277.795 308.512 278.439 309.158 279.083 309.481C279.727 309.158 280.371 309.158 280.693 308.835C306.122 301.728 327.689 301.728 347.002 309.481C354.406 312.388 361.488 315.942 368.247 319.495C378.548 324.664 388.848 330.156 400.437 333.063C411.381 335.648 422.003 336.94 432.948 336.94C453.549 336.94 473.828 333.063 493.785 329.51C495.395 329.187 497.004 328.864 498.614 328.541C500.223 327.571 501.511 326.602 503.12 325.633C499.901 325.956 496.682 326.602 493.463 327.248Z" fill="#FF0000"/>
<path d="M399.471 337.263C387.883 334.678 376.617 330.156 365.994 325.633C359.234 322.726 352.475 319.818 345.393 317.557C326.401 311.096 307.732 310.45 285.199 315.296C285.843 315.942 286.487 316.588 287.13 316.911C308.697 312.388 326.723 313.034 344.749 319.172C351.509 321.433 358.591 324.341 365.028 327.248C375.973 331.771 386.917 336.617 398.827 339.201C410.093 341.785 421.682 342.755 433.27 342.755C449.364 342.755 465.459 340.816 481.232 338.555C483.163 337.586 485.094 336.617 486.704 335.648C458.055 339.847 428.441 343.724 399.471 337.263Z" fill="#FF0000"/>
<path d="M397.54 345.662C418.141 349.538 439.064 349.538 459.987 347.923C462.562 346.954 464.815 345.985 467.39 345.016C444.214 347.277 421.038 347.923 398.183 343.4C385.951 341.139 374.363 337.585 363.097 334.355C340.886 327.894 319.963 321.756 296.143 323.694C297.109 324.341 298.075 324.987 299.04 325.633C321.573 324.341 341.53 330.155 362.775 336.293C373.398 339.847 385.308 343.077 397.54 345.662Z" fill="#FF0000"/>
<path d="M396.252 351.8C408.806 353.738 421.36 354.707 433.914 355.03C437.132 354.384 440.673 353.738 443.892 352.769C428.119 353.092 412.347 352.123 396.896 349.539C385.63 347.6 374.685 345.016 364.063 342.755C346.359 338.555 329.298 334.678 311.594 333.709C312.882 334.678 314.491 335.324 315.779 336.294C331.874 337.586 347.324 341.139 363.419 345.016C373.72 347.277 384.986 349.862 396.252 351.8Z" fill="#FF0000"/>
<path d="M411.703 357.615C406.231 357.292 400.437 356.645 394.643 355.676C384.986 354.384 375.007 352.769 365.35 350.831C356.337 349.215 347.002 347.6 337.668 346.308C341.53 347.6 345.393 349.215 349.256 350.184C354.406 351.154 359.556 351.8 364.707 352.769C374.041 354.384 383.698 355.999 393.355 357.292C395.608 357.292 397.862 357.292 399.793 357.292C404.299 357.938 408.162 357.938 411.703 357.615Z" fill="#FF0000"/>
<path d="M785.742 106.606C785.42 109.513 785.42 112.421 785.42 115.328V116.943C785.742 113.713 785.742 110.805 785.742 107.575C785.742 107.252 785.742 106.929 785.742 106.606Z" fill="#0217CA"/>
<path d="M785.42 116.943C785.098 120.497 784.454 123.728 783.811 127.281H785.42V116.943Z" fill="#8800FF"/>
<path d="M1001.06 296H787V348.98H1001.06V296Z" fill="#8800FF"/>
<path d="M725.226 104.668C724.904 107.575 724.904 110.806 724.904 114.036C725.226 111.775 725.226 109.836 725.226 107.575C725.226 106.606 725.226 105.637 725.226 104.668Z" fill="#8800FF"/>
<path d="M781.235 295.912H715.247C714.926 298.497 714.926 301.081 714.926 303.989V349.215H786.708V295.912H781.235Z" fill="#5900FF"/>
<path d="M510.524 127.281H571.362V125.343C562.67 97.2376 547.541 72.3628 527.262 52.0107C516.318 69.1323 510.524 90.4535 510.524 115.651V127.281V127.281Z" fill="#5900FF"/>
<path d="M266.529 295.912H127.15C127.15 285.898 132.622 276.853 143.566 268.453C154.189 260.054 167.708 252.947 184.125 246.809C198.932 241.317 214.383 234.856 230.155 228.072C225.649 212.243 223.074 195.444 223.074 178.323C223.074 176.707 223.074 174.769 223.074 173.154C208.267 178.969 191.528 186.076 173.18 193.829C151.613 203.197 133.588 211.274 119.424 218.704C102.686 227.103 88.8444 238.41 77.9001 253.27C66.6338 267.807 61.1617 284.606 61.1617 303.666V348.892H347.324V348.569C315.135 338.555 287.774 320.141 266.529 295.912Z" fill="#00C3FF"/>
<path d="M306.766 26.49C282.624 8.72231 249.469 0 207.945 0C164.489 0 130.691 10.0145 106.87 29.7205C82.7285 49.7495 70.4966 78.1778 70.4966 115.328V126.958H131.334V115.328C131.334 73.6551 157.086 52.98 208.267 52.98C232.087 52.98 250.435 56.8565 263.31 64.9328C275.22 49.7495 290.027 36.8275 306.766 26.49Z" fill="#00C3FF"/>
<path d="M266.529 295.912C287.774 320.141 315.135 338.555 346.359 348.569V295.912H266.529Z" fill="#D900FF"/>
<path d="M229.833 228.072C232.087 227.103 234.34 226.134 236.593 225.165C254.619 217.089 272.323 208.366 289.384 198.352C305.8 188.66 319.32 176.061 329.942 160.555C340.565 145.049 346.037 127.281 346.037 107.575C346.037 73.655 333.805 47.165 309.341 28.1051C308.697 27.459 307.732 26.8129 307.088 26.4899C290.349 36.8275 275.864 50.0724 263.31 64.9327C277.796 73.978 285.199 88.1922 285.199 107.575C285.199 121.789 279.727 134.065 268.782 145.372C257.516 156.678 243.675 165.401 227.258 171.862C225.971 172.508 224.683 172.831 223.396 173.477C223.396 175.092 223.396 176.707 223.396 178.646C222.752 195.444 225.005 212.243 229.833 228.072Z" fill="#D900FF"/>
<path d="M571.361 115.328C571.361 73.6551 597.113 52.98 648.294 52.98C698.187 52.98 723.617 70.1015 724.904 104.668C726.836 75.2703 737.136 51.6878 756.128 33.9201C753.875 31.9818 751.621 30.0435 749.046 28.1052C724.904 9.36841 691.106 0 647.972 0C604.516 0 571.04 10.0145 546.898 29.7205C539.172 36.1814 532.412 43.6116 527.262 51.6878C547.541 72.0398 562.67 96.9146 571.361 125.02V115.328Z" fill="#0217CA"/>
<path d="M715.248 295.912H567.177C567.177 285.898 572.649 276.852 583.593 268.453C594.216 260.054 607.735 252.947 624.152 246.809C641.212 240.348 658.594 233.241 676.62 225.165C694.646 217.088 712.351 208.366 729.411 198.352C745.827 188.66 759.347 176.061 769.969 160.555C777.051 150.217 781.558 139.234 784.133 127.281H724.904V115.651C724.904 115.005 724.904 114.682 724.904 114.036C723.617 125.666 718.145 136.003 708.81 145.372C697.544 156.678 683.702 165.401 667.286 171.862C651.191 178 633.487 185.43 613.208 194.152C599.688 199.967 587.456 205.459 576.834 210.627C568.143 258.762 540.138 300.435 501.189 326.925V349.215H715.248V303.988C714.926 301.081 714.926 298.497 715.248 295.912Z" fill="#0217CA"/>
<path d="M725.226 104.668C725.226 105.637 725.226 106.606 725.226 107.575C725.226 109.837 725.226 111.775 724.904 114.036C724.904 114.682 724.904 115.005 724.904 115.652V127.281H784.133C784.776 124.051 785.42 120.497 785.742 116.944V115.329C785.742 112.421 785.742 109.514 786.064 106.606C785.742 76.5627 776.085 52.3341 756.45 33.9203C737.458 51.688 727.158 75.2705 725.226 104.668Z" fill="#FF00BF"/>
<path d="M785.495 106.606C789.035 70.7476 814.465 52.98 862.105 52.98C913.286 52.98 938.716 71.0707 938.716 107.575C938.716 121.789 933.243 134.065 922.299 145.372C911.033 156.679 897.191 165.401 880.775 171.862C864.68 178 846.976 185.43 826.697 194.152C805.13 203.521 787.104 211.597 772.941 219.027C756.202 227.426 742.361 238.733 731.417 253.593C721.76 266.192 716.288 280.406 715 296.236H780.988C780.988 286.221 786.46 277.176 797.405 268.776C808.027 260.377 821.547 253.27 837.963 247.132C855.023 240.671 872.406 233.564 890.432 225.488C908.458 217.412 926.162 208.689 943.222 198.675C959.639 188.983 973.158 176.385 983.781 160.878C994.403 145.372 999.875 127.604 999.875 107.898C999.875 73.9781 987.643 47.4881 963.179 28.4283C938.715 9.36841 904.917 0 862.105 0C818.649 0 785.173 10.0145 761.031 29.7205C759.421 31.0127 757.812 32.6279 756.202 33.9201C775.516 52.3339 785.495 76.5625 785.495 106.606Z" fill="#8800FF"/>
<path d="M576.512 210.305C570.396 213.212 564.602 216.119 559.13 218.704C542.391 227.103 528.55 238.41 517.605 253.27C506.339 267.807 500.867 284.606 500.867 303.666V326.279C539.816 300.112 567.821 258.762 576.512 210.305Z" fill="#5900FF"/>
</g>
<path d="M998.54 1.2916C1009.81 4.19725 1021.09 6.78006 1033 7.10291C1036.55 7.10291 1039.77 7.10291 1042.99 6.4572C1040.73 5.8115 1038.16 5.1658 1035.9 4.84295C1034.94 4.84295 1033.97 4.84295 1033 4.84295C1024.63 4.5201 1016.26 3.2287 1008.2 1.2916C1005.3 1.2916 1002.73 0.96875 999.829 0.96875C999.185 1.2916 998.862 1.2916 998.54 1.2916Z" fill="#262529"/>
<path d="M989.522 4.19694C1003.05 8.39399 1017.22 12.591 1031.72 13.5596C1040.73 14.2053 1048.46 12.9139 1055.55 10.3311C1054.26 10.0082 1053.3 9.68539 1052.01 9.03969C1045.89 10.6539 1039.45 11.6225 1032.04 11.2996C1017.54 10.3311 1003.69 6.13404 990.166 1.93699C989.844 1.93699 989.2 1.61414 988.878 1.61414C986.945 1.61414 985.013 1.93699 983.08 1.93699C985.013 2.90554 987.267 3.55124 989.522 4.19694Z" fill="#262529"/>
<path d="M1031.07 17.7566C1016.9 16.4652 1003.37 11.9453 990.488 7.74827C985.657 6.13402 980.826 4.51977 975.994 2.90552C974.062 3.22837 972.452 3.22837 970.841 3.55122C971.807 3.87407 972.774 4.19692 974.062 4.51977C979.215 6.13402 984.691 7.74827 989.844 9.68537C1003.05 14.2053 1016.58 18.7252 1031.07 20.0166C1044.28 21.308 1054.91 18.4023 1064.57 13.5596C1063.6 13.2367 1062.64 12.9139 1061.67 12.591C1052.65 16.4652 1043.31 18.7252 1031.07 17.7566Z" fill="#262529"/>
<path d="M989.522 15.1739C1002.41 20.0166 1015.93 24.8594 1029.78 26.4736C1046.85 28.4107 1058.77 23.8908 1071.01 16.4653C1070.04 16.1424 1069.4 15.8196 1068.43 15.4967C1057.16 22.2766 1045.89 26.4736 1029.78 24.5365C1015.93 22.9223 1002.73 18.0795 989.844 13.2368C984.046 10.9768 978.249 9.0397 972.129 7.1026C969.552 6.13405 966.976 5.48835 964.399 4.84265C962.789 5.1655 961.178 5.48835 959.568 5.8112C963.433 6.77975 967.62 7.7483 971.807 9.0397C977.927 10.9768 984.046 12.9139 989.522 15.1739Z" fill="#262529"/>
<path d="M970.519 13.5597C976.96 15.8196 983.402 18.0796 989.522 20.6624C1002.41 25.5051 1015.29 30.6707 1029.46 32.9307C1050.07 35.8363 1062.96 29.0565 1077.45 19.0481C1076.81 18.7253 1075.84 18.4024 1075.2 18.0796C1061.67 27.4422 1049.11 33.5764 1029.78 30.6707C1015.93 28.7336 1003.05 23.568 990.488 18.7253C984.368 16.1425 977.927 13.8825 971.163 11.6226C965.365 9.68546 959.568 8.39406 954.414 7.10266C952.804 7.42551 951.193 8.07121 949.583 8.39406C956.025 9.36261 963.111 11.2997 970.519 13.5597Z" fill="#262529"/>
<path d="M1029.14 37.1277C1015.61 34.8678 1002.41 29.3793 990.166 24.2137C983.724 21.6309 976.638 18.7253 969.874 16.4653C960.534 13.2368 951.837 11.2997 943.785 10.3312C942.175 10.9769 940.242 11.6226 938.632 12.2683C947.972 12.5911 958.279 14.5282 969.23 18.4024C975.994 20.6624 982.758 23.568 989.522 26.1508C1002.08 31.3164 1015.29 36.8049 1029.14 39.0648C1052.33 42.939 1066.5 34.2221 1082.93 21.6309C1082.28 21.3081 1081.64 20.9852 1080.67 20.6624C1064.57 32.9307 1051.36 41.0019 1029.14 37.1277Z" fill="#262529"/>
<path d="M967.942 23.5682C975.028 26.151 982.114 28.7338 988.878 31.6395C1001.76 36.8051 1014.97 42.2935 1028.82 44.8764C1055.23 49.7191 1070.04 38.7422 1088.73 24.8596C1088.08 24.5368 1087.44 24.2139 1086.79 23.5682C1068.76 36.8051 1054.58 47.4592 1029.46 42.6164C1015.61 40.0336 1002.41 34.5451 989.844 29.3795C983.08 26.4739 975.994 23.5682 968.908 21.3083C954.092 16.1427 941.531 14.5284 930.258 15.1741C928.325 16.1427 926.071 17.1112 924.138 17.7569C937.344 16.1427 950.871 17.7569 967.942 23.5682Z" fill="#262529"/>
<path d="M967.62 29.3795C974.706 31.6395 982.114 34.5451 989.2 37.4508C1002.08 42.6164 1015.61 47.782 1029.46 50.6876C1054.58 55.8532 1069.4 47.4591 1089.05 33.8994C1091.3 32.2852 1093.56 30.6709 1096.13 29.3795C1095.49 29.0567 1094.84 28.4109 1094.2 28.0881C1092.27 29.3795 1090.01 30.6709 1088.08 31.9623C1068.11 45.522 1054.58 53.2704 1030.1 48.4277C1016.26 45.522 1003.05 40.3564 990.166 35.5137C983.08 32.608 975.994 30.0252 968.586 27.4424C941.531 18.4026 924.138 20.6625 904.169 29.0566C900.304 31.3166 896.761 33.8994 893.218 36.8051C918.663 23.5682 936.377 19.0483 967.62 29.3795Z" fill="#262529"/>
<path d="M881.623 51.6559C886.132 49.0731 890.641 46.1675 894.828 43.2618C901.914 38.4191 909.322 33.2535 917.696 30.6707C934.767 25.1822 952.16 30.025 968.908 35.5134C976.316 38.0962 984.047 40.679 991.132 43.5847C1003.69 48.4274 1016.9 53.2702 1030.11 56.1758C1053.3 61.3414 1067.79 55.853 1089.37 42.939C1094.52 39.7105 1099.03 37.1277 1103.86 35.1906C1103.22 34.5449 1102.57 34.222 1101.93 33.8992C1097.74 35.8363 1093.23 38.4191 1088.4 41.3247C1067.47 54.2387 1053.3 59.4043 1030.75 54.2387C1017.54 51.3331 1004.66 46.4903 992.099 41.6476C984.691 38.7419 977.283 35.8363 969.553 33.5763C952.804 28.0878 934.767 23.2451 917.052 28.7335C908.356 31.6392 900.948 36.8048 893.54 41.6476C889.353 44.5532 884.843 47.4589 880.334 50.0417C878.724 51.0102 876.791 51.9788 874.859 52.6245C873.57 53.9159 872.282 55.2073 870.994 56.4987C874.859 54.8844 878.08 53.2702 881.623 51.6559Z" fill="#262529"/>
<path d="M883.555 59.0815C888.708 56.4987 893.54 52.9473 898.049 49.7188C904.813 44.8761 911.577 40.0333 919.307 37.1276C936.055 31.3163 953.77 35.8362 970.519 41.3247C977.605 43.5847 984.369 45.8446 991.132 48.4274C1024.95 60.3729 1054.26 70.7041 1090.01 51.9788C1097.74 47.7817 1105.15 44.2304 1112.24 41.9704C1111.59 41.3247 1110.95 41.0018 1110.3 40.3561C1103.22 42.6161 1096.46 46.1675 1089.05 50.0417C1054.26 68.4441 1025.27 58.4358 992.099 46.4903C985.335 44.2304 978.571 41.6475 971.485 39.3876C954.414 33.8991 936.377 29.3792 918.985 35.1905C910.933 38.0962 903.847 42.939 897.083 47.7817C892.573 51.0102 887.742 54.5616 882.911 57.1444C876.791 60.3729 870.672 62.6328 864.552 63.9242C863.908 64.8928 862.941 65.8613 862.297 66.507C869.383 65.2156 876.469 62.9557 883.555 59.0815Z" fill="#262529"/>
<path d="M885.487 66.5071C890.963 63.6014 896.116 59.7272 901.27 56.1759C907.389 51.3331 914.153 46.4903 921.239 43.9075C937.666 37.7734 955.38 41.9704 971.807 47.136C979.215 49.396 986.623 51.9788 994.031 54.5616C1025.92 65.8614 1056.19 76.1926 1090.66 60.3729C1101.93 55.2073 1111.59 51.0103 1120.93 49.396C1120.29 48.7503 1119.65 48.1046 1119 47.7817C1109.66 49.7189 1100.64 53.5931 1089.69 58.7587C1055.87 74.2555 1026.24 63.9243 994.675 52.6245C987.589 50.0417 980.181 47.4589 972.451 45.1989C955.38 40.0333 937.344 35.5134 920.273 41.9704C912.865 44.8761 906.101 49.7189 899.659 54.5616C894.828 58.113 889.675 61.9872 884.199 64.8928C875.181 69.4127 866.484 71.6727 857.144 72.6412C856.499 73.2869 855.855 74.2555 855.533 74.9012C866.162 73.9326 875.825 71.6727 885.487 66.5071Z" fill="#262529"/>
<path d="M887.42 73.9328C893.54 71.0271 899.015 66.5072 904.169 62.3102C910.288 57.4674 916.408 52.6247 923.172 50.0419C939.92 43.262 958.601 47.7819 974.706 52.6247C983.08 55.2075 991.132 58.1131 999.185 60.6959C1029.78 71.35 1058.77 81.6812 1091.62 69.09L1094.2 68.1215C1107.41 62.9559 1118.04 58.7588 1129.95 58.436C1129.31 57.7903 1128.66 57.1446 1128.02 56.4989C1116.75 57.4674 1106.12 61.3416 1093.56 66.5072L1090.98 67.4758C1058.77 80.0669 1030.11 69.7357 999.829 59.0817C991.777 56.176 983.724 53.2704 975.35 51.0104C958.924 46.1677 939.92 41.3249 922.528 48.4276C915.442 51.3333 909 56.4989 902.88 61.0188C897.727 65.2158 892.251 69.4129 886.454 72.3185C875.181 77.807 863.908 79.7441 852.635 79.7441C851.99 80.3898 851.668 81.0355 851.346 82.004C862.941 81.6812 875.181 79.7441 887.42 73.9328Z" fill="#262529"/>
<path d="M888.708 81.3582C895.472 78.1297 900.948 73.6098 906.745 69.0899C912.865 64.2472 918.341 59.4044 925.104 56.4988C941.209 49.3961 959.89 52.9474 977.605 58.113C986.623 60.6958 995.642 63.9243 1004.66 67.1528C1033.97 77.8069 1061.35 87.4924 1092.59 77.484C1094.84 76.8383 1097.1 75.8698 1099.35 75.2241C1113.2 70.7042 1124.8 66.83 1138.33 67.7985C1137.68 67.1528 1137.04 66.1843 1136.39 65.5386C1123.19 65.2157 1111.92 68.7671 1098.39 73.287C1096.13 73.9327 1093.88 74.9012 1091.62 75.5469C1061.35 85.2324 1033.97 75.5469 1004.98 65.2157C996.286 61.9872 986.945 58.7587 977.927 56.1759C959.89 51.0103 940.887 47.1361 924.138 54.5617C917.052 57.7902 910.933 62.6329 905.135 67.4757C899.659 71.9956 894.184 76.5155 887.742 79.744C874.537 86.201 861.331 87.1695 848.125 86.5238C847.803 87.1695 847.159 87.8152 846.837 88.4609C860.687 89.1066 874.859 88.1381 888.708 81.3582Z" fill="#262529"/>
<path d="M889.997 88.7841C897.083 85.5555 903.202 81.0356 909 76.8386C914.797 72.3187 921.239 67.7988 928.003 64.8931C942.175 58.759 959.89 58.759 982.436 64.5703C993.065 67.4759 1003.69 71.0273 1013.68 74.9015C1040.09 84.587 1065.21 93.6268 1093.88 85.8784C1096.78 84.9098 1099.68 84.2641 1102.57 83.2956C1117.71 78.7757 1129.95 75.2243 1145.09 77.8071C1144.45 76.8386 1143.8 76.1929 1143.48 75.2243C1128.66 73.2872 1116.75 76.8386 1101.93 81.3585C1099.03 82.327 1096.13 82.9727 1093.23 83.9413C1064.89 91.6897 1040.41 82.6499 1014.32 73.2872C1004.02 69.413 993.709 65.8617 983.08 62.956C960.212 57.1447 941.853 57.1447 927.359 63.2789C920.273 66.1845 913.831 71.0273 908.034 75.5472C902.236 79.7442 896.116 84.2641 889.352 87.4927C874.536 94.2725 859.72 94.5954 844.904 92.9811C844.582 93.6268 844.26 94.2725 843.616 94.9182C859.076 95.8868 874.536 95.5639 889.997 88.7841Z" fill="#262529"/>
<path d="M890.641 95.5638C898.049 92.6582 904.813 88.4611 911.255 84.2641C917.696 80.067 924.138 75.87 931.224 72.9643C951.194 65.2159 972.774 67.4759 987.267 70.7044C999.185 73.2872 1010.46 77.4842 1021.41 81.6813C1045.57 90.7211 1068.43 99.1152 1095.17 92.6582C1098.39 92.0125 1101.61 91.0439 1104.83 90.0754C1121.26 85.8783 1134.46 82.6498 1151.53 86.2012C1150.89 85.2326 1150.57 84.5869 1149.92 83.6184C1133.17 80.3899 1119.65 83.9412 1104.19 87.8154C1100.96 88.4611 1097.74 89.4297 1094.52 90.0754C1068.43 96.2095 1045.89 87.8154 1022.05 79.0985C1011.1 74.9014 999.507 70.7044 987.59 68.1216C972.774 64.5702 950.549 62.3103 930.258 70.3815C922.85 73.2872 916.408 77.4842 909.644 81.6813C903.203 85.8783 896.761 90.0754 889.675 92.981C873.248 99.438 857.466 99.4381 841.362 97.1781C841.04 97.8238 840.717 98.4695 840.395 99.1152C857.144 102.344 873.57 102.344 890.641 95.5638Z" fill="#262529"/>
<path d="M1105.8 95.8865C1102.25 96.5322 1099.03 97.5008 1095.17 98.1465C1071.01 102.989 1050.4 95.2408 1028.82 86.8467C1016.9 82.3268 1004.66 77.8069 991.777 75.2241C961.178 69.4128 940.243 78.7755 916.086 89.4295C907.712 92.9809 899.015 96.8551 889.675 100.406C871.96 106.541 855.534 105.895 838.785 103.635C838.463 104.281 838.141 104.926 837.819 105.572C854.889 108.155 871.96 108.801 890.319 102.344C899.982 99.115 908.678 95.2408 917.052 91.3666C940.887 80.7126 961.5 71.6728 991.455 77.4841C1004.34 80.0669 1016.58 84.5868 1028.17 88.7838C1050.4 97.1779 1071.33 104.926 1095.81 100.084C1099.35 99.4379 1102.9 98.4693 1106.44 97.8236C1123.19 94.2723 1137.36 91.0438 1156.04 95.5637C1156.36 95.5637 1156.69 95.8865 1157.01 95.8865C1156.69 94.918 1156.04 94.2723 1155.72 93.3037C1137.04 89.1067 1122.54 92.3352 1105.8 95.8865Z" fill="#262529"/>
<path d="M1107.73 103.635C1103.86 104.281 1100 104.926 1096.13 105.572C1073.91 109.123 1054.91 102.021 1034.29 94.2723C1021.73 89.7524 1008.85 84.9096 995.319 82.6497C965.687 78.1298 942.175 87.1696 917.696 96.8551C908.678 100.406 899.015 104.281 889.03 107.186C870.994 112.675 854.889 112.029 836.208 109.123C835.886 109.769 835.564 110.415 835.242 111.061C854.245 113.966 870.671 114.935 889.353 109.123C899.337 105.895 909 102.344 918.34 98.7922C942.819 89.1067 965.687 80.0669 994.997 84.9096C1008.2 87.1696 1021.09 91.6895 1033.33 96.5322C1052.97 103.958 1073.59 111.383 1096.13 107.832C1100.32 107.186 1104.19 106.541 1107.73 105.895C1124.15 102.989 1138.33 100.406 1156.36 104.604C1157.97 104.926 1159.58 105.249 1161.19 105.895C1160.87 104.926 1160.55 104.281 1159.91 103.312C1158.94 102.989 1157.65 102.666 1156.69 102.666C1138.65 98.1465 1124.15 100.729 1107.73 103.635Z" fill="#262529"/>
<path d="M1109.66 111.384C1105.47 112.029 1101.29 112.675 1096.78 113.321C1076.16 115.904 1058.13 109.124 1039.12 102.021C1026.24 97.1782 1012.71 92.3355 998.54 90.3984C969.552 86.847 945.074 95.2411 918.985 104.281C909 107.832 898.371 111.384 887.742 114.289C869.705 119.132 851.346 118.486 833.309 116.549C832.987 117.195 832.665 117.841 832.665 118.486C851.024 120.423 870.027 121.069 888.386 116.226C899.015 113.321 909.644 109.769 919.951 106.218C945.718 97.1782 970.197 88.7841 998.54 92.3355C1012.39 93.9497 1025.92 99.1153 1038.8 103.635C1057.16 110.415 1076.49 117.518 1097.42 114.935C1101.93 114.289 1106.44 113.644 1110.63 112.998C1126.73 110.738 1140.26 108.801 1157.65 112.352C1160.55 112.998 1163.13 113.644 1166.03 114.289C1165.7 113.321 1165.38 112.675 1165.06 111.706C1162.81 111.061 1160.55 110.738 1158.3 110.092C1139.94 106.864 1125.76 108.801 1109.66 111.384Z" fill="#262529"/>
<path d="M1112.24 119.132C1107.41 119.778 1102.57 120.1 1097.42 120.746C1078.1 122.36 1061.03 115.903 1042.99 109.446C1029.78 104.604 1015.93 99.438 1001.44 97.8237C973.74 94.9181 947.328 102.989 921.561 111.061C909.966 114.612 898.049 118.486 886.454 121.069C868.095 125.266 849.736 124.297 831.377 122.038C831.055 122.683 830.733 123.329 830.733 123.975C849.092 126.235 868.095 127.203 886.776 123.006C898.693 120.423 910.61 116.549 922.206 112.998C947.651 104.926 974.062 96.8552 1001.44 99.7608C1015.61 101.375 1029.46 106.218 1042.67 111.061C1060.06 117.518 1078.1 123.975 1098.07 122.683C1103.22 122.36 1108.37 121.715 1113.2 121.069C1128.02 119.455 1141.87 117.84 1158.3 121.069C1161.84 121.715 1165.38 122.683 1169.25 123.329C1168.93 122.683 1168.6 121.715 1168.6 121.069C1165.38 120.423 1162.16 119.778 1158.94 119.132C1141.55 115.903 1127.38 117.518 1112.24 119.132Z" fill="#262529"/>
<path d="M1114.17 126.557C1109.02 126.88 1103.54 127.526 1097.74 127.849C1079.71 128.817 1063.28 123.006 1046.21 116.872C1032.68 112.029 1018.51 106.863 1003.37 105.895C974.706 103.635 945.718 111.383 917.696 119.132C906.745 122.037 895.472 125.266 884.521 127.526C865.84 131.4 847.481 130.431 829.122 128.172C828.8 128.817 828.8 129.463 828.478 130.431C847.159 132.691 865.84 133.983 884.843 129.786C895.794 127.526 907.067 124.297 918.018 121.392C946.04 113.966 974.706 105.895 1003.05 108.155C1017.87 109.446 1031.72 114.289 1045.24 119.132C1061.67 124.943 1078.74 131.077 1097.42 130.109C1103.22 129.786 1108.69 129.463 1113.85 128.817C1128.34 127.526 1142.19 126.234 1157.97 129.14C1162.16 129.786 1166.35 130.754 1170.54 131.4C1170.21 130.754 1170.21 129.786 1169.89 129.14C1166.03 128.494 1162.16 127.849 1158.3 127.203C1142.84 124.297 1128.99 125.266 1114.17 126.557Z" fill="#262529"/>
<path d="M1111.59 133.337C1107.41 133.66 1102.9 134.306 1098.71 134.628C1080.03 136.243 1063.28 130.754 1045.57 125.266C1032.36 121.069 1018.83 116.872 1004.66 115.58C971.163 112.675 936.7 120.746 903.525 128.171C896.761 129.786 889.997 131.4 883.233 132.691C864.874 136.566 846.193 136.243 827.834 134.628C827.512 135.274 827.512 135.92 827.19 136.888C845.871 138.503 864.552 139.148 883.555 134.951C890.319 133.66 897.083 132.046 903.847 130.431C937.022 123.006 971.485 114.935 1004.34 117.84C1018.19 119.132 1031.72 123.329 1044.6 127.203C1061.67 132.691 1079.71 138.18 1098.71 136.566C1103.22 136.243 1107.73 135.597 1111.92 135.274C1127.7 133.66 1142.51 132.046 1159.58 135.274C1163.77 135.92 1168.28 136.888 1172.79 137.534C1172.47 136.888 1172.47 135.92 1172.15 135.274C1167.96 134.628 1164.09 133.983 1159.91 133.337C1142.51 130.109 1127.38 131.723 1111.59 133.337Z" fill="#262529"/>
<path d="M1107.73 139.794C1104.83 140.117 1101.93 140.44 1098.71 140.763C1079.71 143.023 1061.03 137.857 1042.99 133.015C1030.43 129.463 1017.22 125.912 1004.02 124.943C964.399 121.715 921.239 129.14 880.334 138.18C862.297 142.054 843.938 142.054 825.579 141.086C825.579 141.731 825.257 142.377 825.257 143.346C843.616 144.314 862.297 144.314 880.978 140.44C921.561 131.723 964.721 123.975 1004.02 127.526C1017.22 128.495 1030.1 132.046 1042.67 135.597C1060.7 140.44 1079.71 145.606 1099.03 143.346C1101.93 143.023 1105.15 142.7 1108.05 142.377C1126.09 140.117 1141.87 138.18 1160.55 141.409C1165.06 142.054 1169.57 143.023 1173.76 143.669C1173.76 143.023 1173.43 142.054 1173.11 141.409C1169.25 140.763 1165.06 140.117 1160.87 139.472C1141.87 135.597 1126.09 137.534 1107.73 139.794Z" fill="#262529"/>
<path d="M1162.16 144.314C1140.9 141.085 1123.19 143.668 1102.9 146.574L1099.68 147.219C1079.71 150.125 1060.06 145.605 1040.73 141.085C1028.49 138.18 1016.26 135.597 1003.69 134.305C964.399 131.077 918.985 134.305 878.402 143.022C860.687 146.897 842.65 147.542 824.935 147.542C824.935 148.188 824.613 148.834 824.613 149.802C842.65 150.125 861.009 149.157 879.046 145.282C919.307 136.565 964.721 133.337 1003.69 136.565C1016.26 137.534 1028.49 140.44 1040.41 143.022C1059.74 147.542 1079.71 152.062 1100 149.157L1103.22 148.511C1123.51 145.605 1140.9 143.022 1161.84 146.251C1165.38 146.897 1168.92 147.219 1172.47 147.865C1173.11 147.865 1174.08 148.188 1174.72 148.188C1174.72 147.542 1174.4 146.574 1174.4 145.928C1173.76 145.928 1173.43 145.605 1172.79 145.605C1169.25 145.605 1165.7 144.96 1162.16 144.314Z" fill="#262529"/>
<path d="M1100 153.677C1079.06 157.228 1057.8 153.354 1036.87 149.48C1025.6 147.22 1014 145.283 1002.41 144.314C950.227 140.117 908.678 141.408 875.503 148.834C858.11 152.708 840.717 154.322 823.647 154.645C823.647 155.291 823.324 155.937 823.324 156.905C840.717 156.582 858.11 154.968 876.147 151.094C909.322 143.991 950.549 142.377 1002.41 146.574C1013.68 147.543 1025.27 149.803 1036.55 151.74C1057.48 155.614 1079.06 159.811 1100.32 155.937C1126.73 151.417 1150.89 153.031 1176.01 155.937C1176.01 155.291 1175.69 154.322 1175.69 153.677C1150.57 150.771 1126.41 148.834 1100 153.677Z" fill="#262529"/>
<path d="M1100.32 160.134C1077.77 164.654 1054.58 161.425 1031.72 157.874C1021.73 156.259 1011.75 154.968 1001.76 154C997.896 153.677 993.709 153.354 989.522 153.031C952.16 149.802 909.644 146.251 873.248 154C856.178 157.874 839.107 159.811 822.68 161.102C822.68 161.748 822.68 162.394 822.358 163.362C839.107 162.071 856.178 160.134 873.892 156.259C909.966 148.188 952.16 152.062 989.522 155.291C993.709 155.614 997.574 155.937 1001.76 156.259C1011.75 157.228 1021.73 158.519 1031.72 160.134C1054.58 163.685 1078.1 167.236 1100.96 162.394C1127.38 156.905 1151.85 158.197 1176.66 161.102C1176.66 160.457 1176.33 159.488 1176.33 158.842C1151.53 155.937 1127.05 154.322 1100.32 160.134Z" fill="#262529"/>
<path d="M1100.96 166.591C1076.49 172.402 1050.07 169.174 1024.63 166.268C1016.9 165.299 1008.85 164.331 1000.8 163.685C991.132 162.717 981.148 161.748 970.519 160.457C937.022 156.582 902.558 152.708 871.316 159.488C853.923 163.362 837.496 166.268 821.714 167.882C821.714 168.528 821.714 169.496 821.714 170.142C837.819 168.205 854.245 165.299 871.96 161.425C902.558 154.645 937.022 158.52 970.197 162.394C980.826 163.685 990.81 164.654 1000.47 165.622C1008.2 166.268 1016.26 167.236 1024.31 168.205C1050.07 171.111 1076.49 174.339 1101.61 168.528C1128.02 162.394 1152.5 163.362 1176.98 166.268C1176.98 165.622 1176.98 164.654 1176.66 164.008C1152.18 161.102 1127.7 160.134 1100.96 166.591Z" fill="#262529"/>
<path d="M1105.8 172.079C1077.77 179.504 1050.07 176.922 1021.09 174.339C1014 173.693 1006.91 173.047 999.829 172.402C987.267 171.433 974.384 169.496 960.534 167.559C928.969 163.039 896.116 158.196 866.806 165.945C851.346 170.142 836.53 173.047 822.036 175.307C822.036 175.953 822.036 176.922 822.036 177.567C836.53 175.307 851.668 172.402 867.451 168.205C896.439 160.456 928.969 165.299 960.534 169.819C974.384 171.756 987.267 173.693 999.829 174.662C1006.91 175.307 1014 175.953 1021.09 176.599C1050.4 179.182 1078.1 181.764 1106.76 174.339C1131.56 167.882 1154.43 168.528 1177.94 171.11C1177.94 170.465 1177.94 169.496 1177.94 168.85C1153.79 166.268 1130.6 165.622 1105.8 172.079Z" fill="#262529"/>
<path d="M1107.41 178.213C1073.26 186.93 1040.09 184.67 1004.98 182.088L999.184 181.765C985.013 180.796 970.197 177.891 955.703 175.308C925.748 169.819 894.506 164.331 865.84 172.079C850.058 176.276 835.564 179.505 822.036 181.765C822.036 182.41 822.036 183.379 822.036 184.025C835.886 181.765 850.38 178.536 866.484 174.016C894.828 166.268 925.748 171.756 955.381 177.245C969.874 179.828 985.013 182.733 999.184 183.702L1004.98 184.025C1040.41 186.607 1073.91 189.19 1108.05 180.15C1132.21 173.694 1155.07 173.694 1177.62 175.631C1177.62 174.985 1177.62 174.016 1177.62 173.371C1154.75 171.756 1131.88 171.756 1107.41 178.213Z" fill="#262529"/>
<path d="M1109.34 184.347C1070.04 194.679 1031.39 193.71 998.54 191.127C983.08 189.836 966.976 186.284 951.838 183.056C923.494 176.599 894.184 170.142 865.518 178.213C850.38 182.41 836.208 185.962 822.358 188.544C822.358 189.19 822.358 190.159 822.358 190.804C836.208 188.222 850.38 184.67 865.84 180.473C894.184 172.725 923.172 179.182 951.194 185.316C966.654 188.867 982.758 192.419 998.218 193.387C1031.07 195.647 1070.04 196.939 1109.66 186.284C1133.17 180.15 1155.4 179.182 1177.3 180.796C1177.3 180.473 1177.3 179.827 1177.3 179.505C1177.3 179.182 1177.3 178.859 1177.3 178.859C1155.4 177.245 1133.17 178.213 1109.34 184.347Z" fill="#262529"/>
<path d="M947.973 193.064C964.077 197.584 980.504 202.104 997.574 203.073C1006.27 203.719 1014.97 204.041 1023.66 204.041C1053.62 204.041 1082.61 200.167 1111.59 192.096C1134.78 185.962 1156.04 184.348 1177.3 185.316C1177.3 184.67 1177.3 184.025 1177.3 183.056C1156.04 182.41 1134.46 184.025 1110.95 190.482C1073.59 200.49 1036.55 204.041 997.574 201.136C980.826 199.844 964.399 195.324 948.295 191.127C921.561 183.702 893.862 176.276 864.552 184.67C849.736 188.867 835.886 192.742 822.358 195.647C822.358 196.293 822.358 196.939 822.68 197.907C836.53 195.002 850.38 191.127 865.196 186.93C893.862 178.213 920.273 185.639 947.973 193.064Z" fill="#262529"/>
<path d="M1112.88 196.616C1067.79 208.884 1032.04 213.404 997.252 210.821C979.537 209.53 962.789 204.042 946.362 198.876C919.629 190.159 894.184 182.088 864.23 190.805C856.822 193.065 850.058 195.647 843.294 198.23C836.53 200.813 830.088 203.073 823.324 205.333C823.324 205.979 823.647 206.624 823.647 207.593C830.733 205.656 837.496 203.073 844.26 200.49C851.024 197.907 857.788 195.325 865.196 193.387C894.506 184.993 919.307 193.065 946.04 201.459C962.466 206.624 979.215 212.113 997.252 213.404C1003.69 213.727 1010.14 214.05 1016.58 214.05C1045.57 214.05 1076.49 209.207 1113.53 199.199C1136.07 193.065 1156.69 191.128 1176.98 191.45C1176.98 190.805 1176.98 190.159 1176.98 189.19C1156.69 188.222 1135.75 190.159 1112.88 196.616Z" fill="#262529"/>
<path d="M1115.14 202.75C1074.88 214.05 1038.16 223.09 998.218 220.184C979.215 218.892 962.467 212.435 946.04 206.301C919.951 196.616 895.472 187.576 864.874 196.616C857.144 198.876 849.736 201.781 842.65 204.687C836.53 207.27 830.733 209.53 824.613 211.467C824.613 212.113 824.935 212.758 824.935 213.727C831.377 211.79 837.496 209.207 843.294 206.947C850.38 204.041 857.466 201.136 865.196 198.876C895.15 189.836 919.629 198.876 945.074 208.238C961.5 214.373 978.571 220.83 997.896 222.121C1003.05 222.444 1008.2 222.767 1013.36 222.767C1047.82 222.767 1080.03 214.695 1115.46 204.687C1136.07 198.876 1156.04 195.97 1176.66 195.97C1176.66 195.324 1176.66 194.679 1176.98 193.71C1156.04 193.71 1135.75 196.939 1115.14 202.75Z" fill="#262529"/>
<path d="M1106.44 211.79C1071.01 222.121 1037.83 231.807 1000.15 229.224C980.503 227.933 963.111 220.507 946.362 213.727C920.595 203.073 896.438 193.065 864.874 203.073C856.822 205.656 849.413 208.885 842.005 211.79C836.852 214.05 831.377 216.31 825.579 218.247C825.579 218.893 825.901 219.539 825.901 220.507C831.699 218.57 837.174 215.987 842.65 213.727C850.058 210.499 857.466 207.593 865.196 205.01C896.116 195.325 919.951 205.333 945.396 215.664C962.144 222.767 979.537 229.87 999.829 231.161C1004.34 231.484 1008.52 231.484 1013.03 231.484C1045.57 231.484 1075.52 222.767 1106.76 213.727C1110.3 212.759 1113.85 211.79 1117.39 210.499C1137.68 204.687 1157.01 201.459 1176.01 200.813C1176.01 200.168 1176.33 199.522 1176.33 198.553C1157.01 199.199 1137.36 202.428 1117.07 208.239C1113.53 209.853 1109.98 210.822 1106.44 211.79Z" fill="#262529"/>
<path d="M1101.93 220.184C1070.37 230.192 1037.84 240.201 1003.69 236.972C984.047 235.035 966.976 227.609 950.549 220.507C925.427 209.53 901.914 199.199 870.027 207.593C860.365 210.176 851.346 214.05 842.328 217.924C837.497 220.184 832.343 222.121 827.512 224.058C827.834 224.704 827.834 225.349 828.156 225.995C833.309 224.058 838.463 221.798 843.294 219.538C851.991 215.664 861.331 211.79 870.672 209.207C901.592 200.813 925.104 211.144 949.583 221.798C966.01 228.901 983.08 236.649 1003.37 238.586C1008.2 238.909 1012.71 239.232 1017.54 239.232C1047.18 239.232 1075.2 230.515 1102.57 221.798C1107.08 220.507 1111.59 218.893 1116.42 217.601C1137.04 211.467 1156.69 207.593 1175.37 206.624C1175.37 205.979 1175.69 205.01 1175.69 204.364C1156.36 205.333 1136.39 209.207 1115.78 215.341C1110.95 217.278 1106.44 218.892 1101.93 220.184Z" fill="#262529"/>
<path d="M1097.42 228.578C1068.11 238.263 1037.51 247.949 1005.95 243.429C986.945 240.523 970.519 233.421 954.736 226.318C928.647 214.695 903.846 203.395 870.993 212.758C861.331 215.664 851.668 219.861 842.65 223.735C838.14 225.672 833.631 227.932 828.8 229.546C829.122 230.192 829.122 230.838 829.444 231.483C834.275 229.546 838.785 227.609 843.294 225.349C852.312 221.152 861.653 216.955 871.316 214.372C903.524 205.333 928.003 215.987 953.77 227.609C969.874 234.712 986.301 242.137 1005.63 245.043C1011.42 246.012 1016.9 246.335 1022.7 246.335C1048.79 246.335 1073.91 238.263 1098.39 230.192C1104.83 227.932 1111.59 225.995 1118.36 224.058C1138.33 218.247 1157.01 214.372 1174.72 213.081C1174.72 212.435 1175.04 211.467 1175.04 210.821C1157.01 212.112 1138 215.987 1117.71 222.121C1110.63 224.381 1104.19 226.318 1097.42 228.578Z" fill="#262529"/>
<path d="M1095.49 236.003C1067.15 245.689 1038.16 255.375 1008.2 249.563C990.488 246.012 974.706 238.909 959.568 231.806C932.512 219.215 906.745 207.593 871.96 217.924C861.975 220.83 852.313 225.349 843.294 229.546C839.107 231.484 834.92 233.421 830.733 235.035C831.055 235.681 831.055 236.326 831.377 236.972C835.564 235.035 840.073 233.098 844.26 231.161C853.279 226.964 862.941 222.444 872.604 219.538C906.423 209.53 931.868 221.152 958.602 233.421C974.062 240.523 989.844 247.626 1007.88 251.177C1014.32 252.469 1020.76 253.115 1026.88 253.115C1050.72 253.115 1073.59 245.366 1096.13 237.618C1103.86 235.035 1111.59 232.452 1119.32 230.192C1134.46 225.672 1152.82 221.152 1172.79 218.892C1173.11 218.247 1173.11 217.278 1173.43 216.632C1153.14 218.57 1134.14 223.412 1118.68 227.932C1111.27 230.838 1103.22 233.421 1095.49 236.003Z" fill="#262529"/>
<path d="M1094.52 243.106C1067.15 252.792 1038.8 263.123 1010.14 256.02C993.387 251.823 978.571 244.721 964.077 237.941C935.733 224.381 909.322 211.79 872.604 223.09C862.619 226.318 852.957 230.838 843.616 235.035C839.751 236.649 836.208 238.586 832.343 240.201C832.665 240.846 832.987 241.492 832.987 242.138C836.852 240.523 840.717 238.586 844.582 236.972C853.923 232.775 863.586 228.255 873.248 225.027C909 213.727 935.411 226.318 963.111 239.555C977.605 246.335 992.421 253.437 1009.49 257.957C1016.58 259.572 1023.34 260.54 1030.11 260.54C1052.33 260.54 1073.91 252.792 1095.17 245.043C1103.54 242.138 1112.24 238.909 1120.61 236.326C1136.07 231.807 1153.46 227.287 1171.18 225.027C1171.5 224.381 1171.5 223.412 1171.82 222.767C1153.46 225.027 1135.75 229.547 1119.97 234.066C1111.92 236.972 1102.9 240.201 1094.52 243.106Z" fill="#262529"/>
<path d="M874.214 230.515C912.221 218.247 939.276 231.806 967.62 246.012C981.148 252.792 994.997 259.894 1010.78 264.737C1017.87 266.997 1025.27 267.966 1032.36 267.966C1053.3 267.966 1074.23 259.894 1094.84 252.469C1104.19 248.917 1113.2 245.689 1121.9 243.106C1137.36 238.586 1153.46 234.389 1169.57 232.129C1169.89 231.484 1169.89 230.515 1170.21 229.869C1153.46 232.129 1136.72 236.326 1121.26 241.169C1112.56 243.752 1103.54 246.98 1094.2 250.532C1067.15 260.863 1038.8 271.517 1011.42 263.123C995.642 258.28 981.792 251.177 968.586 244.398C939.598 229.869 912.221 215.987 873.57 228.578C863.263 231.806 853.601 236.649 844.26 241.169C841.039 242.783 837.819 244.075 834.598 245.689C834.92 246.335 835.242 246.98 835.564 247.626C838.785 246.012 842.006 244.398 845.227 243.106C854.245 238.263 863.908 233.744 874.214 230.515Z" fill="#262529"/>
<path d="M1122.54 246.98C1113.53 249.563 1104.19 253.437 1094.52 257.311C1067.15 267.965 1039.12 279.265 1012.71 269.58C998.218 264.414 985.335 257.311 973.096 250.854C943.463 235.035 915.442 220.184 873.892 234.066C863.264 237.295 853.279 242.137 843.616 246.98C841.362 248.272 838.785 249.24 836.53 250.532C836.852 251.177 837.174 251.823 837.497 252.469C840.073 251.177 842.328 250.209 844.582 248.917C854.245 244.075 863.908 239.232 874.215 235.68C914.798 222.121 941.209 236.003 971.485 252.469C984.047 259.248 996.93 266.028 1011.42 271.194C1018.83 273.777 1026.24 275.068 1033.97 275.068C1054.26 275.068 1074.88 266.997 1094.84 258.926C1104.51 255.051 1113.85 251.5 1122.87 248.917C1137.68 244.72 1152.5 240.846 1167.31 238.263C1167.64 237.618 1167.96 236.649 1167.96 236.003C1152.82 238.586 1137.04 242.783 1122.54 246.98Z" fill="#262529"/>
<path d="M1093.88 264.091C1067.79 274.746 1037.84 287.014 1012.39 276.36C998.54 270.548 986.623 263.769 975.028 256.989C945.074 239.555 918.985 224.381 874.859 239.232C864.23 242.783 853.923 247.949 844.26 253.115C842.65 254.083 840.717 254.729 839.107 255.697C839.429 256.343 839.751 256.989 840.073 257.634C841.684 256.666 843.616 256.02 845.226 255.052C854.889 250.209 865.196 245.043 875.503 241.492C918.663 226.641 944.43 241.815 973.74 258.926C985.335 265.706 997.574 272.808 1011.42 278.62C1018.83 281.525 1026.24 282.817 1033.97 282.817C1054.26 282.817 1075.2 274.1 1094.52 266.351C1104.51 262.154 1114.17 258.28 1123.19 255.697C1137.04 251.823 1151.21 248.272 1164.74 245.689C1165.06 245.043 1165.38 244.075 1165.7 243.429C1151.21 246.012 1136.72 249.563 1122.54 253.76C1113.53 256.343 1103.86 260.217 1093.88 264.091Z" fill="#262529"/>
<path d="M1122.22 261.186C1113.2 263.769 1103.86 267.32 1093.88 271.195C1066.18 281.849 1037.51 293.148 1011.42 282.817C999.829 277.974 988.556 270.872 977.927 263.769C967.942 257.312 957.635 250.532 946.684 245.689C925.748 236.65 901.914 236.65 875.503 245.689C864.874 249.241 854.567 254.729 844.904 259.895C843.616 260.54 842.65 261.186 841.361 261.832C841.684 262.478 842.006 263.123 842.328 263.769C843.616 263.123 844.582 262.478 845.871 261.832C855.533 256.666 865.84 251.501 876.147 247.949C901.914 239.232 925.104 239.232 945.718 247.949C956.347 252.469 966.654 259.249 976.638 265.706C987.589 272.809 998.54 280.234 1010.46 285.077C1017.87 287.983 1025.6 289.274 1033.65 289.274C1053.94 289.274 1075.2 281.203 1094.52 273.777C1104.51 269.903 1113.85 266.352 1122.54 263.769C1135.43 260.218 1148.31 256.989 1161.19 254.406C1161.52 253.761 1161.84 252.792 1162.16 252.146C1148.63 254.083 1135.11 257.635 1122.22 261.186Z" fill="#262529"/>
<path d="M1121.26 268.935C1112.56 271.195 1103.22 274.746 1093.56 277.974C1065.53 287.983 1036.55 298.637 1010.14 288.628C998.54 284.109 987.911 276.683 977.927 269.257C968.586 262.478 959.246 255.698 948.939 251.178C923.816 239.878 896.116 245.367 877.435 251.824C866.484 255.375 856.499 260.863 846.515 266.029C845.871 266.352 845.226 266.675 844.904 266.998C845.226 267.643 845.548 268.289 845.871 268.935C846.515 268.612 847.159 268.289 847.481 267.966C857.466 262.8 867.45 257.635 878.079 253.761C896.438 247.304 923.494 242.138 947.972 253.115C958.279 257.635 967.62 264.415 976.638 270.872C986.945 278.297 997.574 286.046 1009.49 290.566C1017.22 293.471 1025.27 294.763 1033.33 294.763C1053.62 294.763 1074.88 287.014 1094.2 279.912C1103.86 276.36 1112.88 273.132 1121.9 270.872C1133.82 267.643 1145.41 264.738 1157.01 262.478C1157.33 261.509 1157.97 260.863 1158.3 259.895C1146.06 262.478 1133.82 265.706 1121.26 268.935Z" fill="#262529"/>
<path d="M1119.97 277.006C1111.27 279.266 1102.57 282.171 1093.23 285.4C1064.89 294.762 1035.58 304.771 1008.85 294.762C997.252 290.565 987.267 282.817 977.283 275.391C968.586 268.934 959.89 262.154 949.905 257.635C925.749 246.658 898.049 252.146 879.046 258.603C868.095 262.154 858.11 267.643 848.125 272.809C848.447 273.454 848.77 274.1 849.414 274.746C859.076 269.58 869.383 264.414 880.012 260.863C898.693 254.406 925.749 249.24 949.261 259.895C958.924 264.414 967.62 270.871 976.316 277.328C986.301 284.754 996.608 292.502 1008.2 297.022C1016.26 299.928 1024.63 301.219 1033.33 301.219C1053.62 301.219 1074.88 294.117 1094.2 287.66C1103.54 284.431 1112.56 281.525 1120.93 279.266C1130.92 276.683 1141.55 274.1 1152.5 271.84C1153.14 270.871 1153.46 270.226 1154.11 269.257C1141.87 271.517 1130.6 274.423 1119.97 277.006Z" fill="#262529"/>
<path d="M1121.9 283.786C1113.2 286.045 1104.19 288.628 1094.84 291.534C1065.21 300.897 1034.61 310.259 1006.27 299.928C994.675 295.731 984.691 287.983 975.028 280.88C968.264 276.037 961.5 270.549 954.092 266.674C924.782 250.209 889.675 261.186 875.825 266.352C867.451 269.58 859.076 273.777 851.346 277.974C851.668 278.62 851.99 279.266 852.635 279.911C860.365 275.714 868.417 271.84 876.791 268.612C890.319 263.446 924.782 252.792 953.448 268.612C960.856 272.809 967.62 277.974 974.062 282.817C983.724 290.242 993.709 297.668 1005.95 302.188C1014.97 305.416 1024.31 306.708 1033.65 306.708C1054.26 306.708 1075.52 300.251 1095.81 293.794C1105.15 290.888 1113.85 287.983 1122.54 286.045C1130.6 284.108 1138.65 282.171 1146.38 280.557C1147.02 279.588 1147.67 278.943 1148.31 277.974C1138.97 279.588 1130.27 281.526 1121.9 283.786Z" fill="#262529"/>
<path d="M1119.97 291.211C1111.92 293.148 1103.54 295.408 1094.84 297.991C1064.89 306.708 1033.97 315.748 1004.34 305.739C992.421 301.542 982.436 294.117 973.095 287.014C966.653 282.171 960.212 277.006 952.804 273.131C924.46 257.312 889.675 267.966 876.147 273.454C868.739 276.36 861.653 279.911 854.889 283.463C855.211 284.108 855.855 284.754 856.177 285.077C862.941 281.525 869.705 278.297 877.113 275.391C890.641 270.226 924.46 259.572 952.16 275.068C959.245 278.943 966.009 284.108 972.129 288.951C981.792 296.377 991.776 303.802 1004.02 307.999C1013.68 311.228 1023.34 312.519 1033 312.519C1053.94 312.519 1075.2 306.385 1095.81 300.251C1104.51 297.668 1112.56 295.408 1120.61 293.471C1127.38 291.857 1133.82 290.242 1140.26 288.951C1140.9 287.982 1141.55 287.337 1142.19 286.368C1135.11 287.66 1127.7 289.597 1119.97 291.211Z" fill="#262529"/>
<path d="M1117.71 298.959C1110.31 300.574 1102.57 302.834 1095.17 304.771C1064.57 313.165 1033.33 321.559 1002.73 311.551C990.488 307.676 981.47 300.574 971.485 292.825C965.365 287.983 958.924 283.14 951.838 279.266C924.138 263.769 889.675 274.423 875.825 279.588C869.705 281.848 863.586 284.754 858.11 287.66C858.432 288.305 859.076 288.951 859.399 289.274C864.874 286.368 870.672 283.785 876.791 281.526C889.997 276.36 924.138 266.029 950.872 280.88C957.957 284.754 964.077 289.597 970.197 294.44C979.537 301.865 989.522 309.291 1002.08 313.488C1012.07 316.716 1022.05 318.008 1032.36 318.008C1053.62 318.008 1074.88 312.196 1095.81 306.708C1103.22 304.771 1110.95 302.511 1118.04 300.897C1122.87 299.928 1127.7 298.637 1132.21 297.668C1132.85 296.699 1133.82 295.731 1134.46 295.085C1129.31 296.377 1123.83 297.668 1117.71 298.959Z" fill="#262529"/>
<path d="M1115.46 307.353C1109.02 308.645 1102.25 310.582 1095.49 312.196C1064.57 319.622 1033 327.693 1001.76 318.007C989.844 314.456 980.503 307.676 970.519 300.573C964.399 296.376 958.279 291.856 951.515 287.982C924.138 273.131 889.675 283.462 876.147 288.305C871.638 289.919 867.45 291.856 863.263 293.794C863.585 294.439 864.23 295.085 864.552 295.408C868.417 293.471 872.604 291.856 876.791 290.242C889.997 285.399 923.816 275.391 950.549 289.919C957.313 293.471 963.433 297.991 969.552 302.188C979.215 308.967 989.2 316.07 1001.44 319.944C1011.75 323.173 1022.37 324.464 1033 324.464C1054.26 324.464 1075.52 319.299 1096.45 314.133C1102.9 312.519 1109.66 310.905 1116.42 309.29C1119 308.645 1121.26 308.322 1123.83 307.676C1124.8 306.708 1125.76 305.739 1126.73 304.77C1122.54 305.739 1119 306.385 1115.46 307.353Z" fill="#262529"/>
<path d="M1112.88 315.425C1107.08 316.717 1100.96 318.008 1095.17 319.299C1064.25 326.079 1032.04 332.859 1000.47 324.142C988.556 320.914 978.893 315.102 968.908 308.645C962.789 305.094 956.669 301.22 949.905 297.991C924.46 285.723 895.472 291.211 875.503 297.991C873.248 298.637 870.994 299.605 868.739 300.574C869.383 301.22 869.705 301.865 870.349 302.188C872.282 301.543 874.214 300.897 876.147 300.251C895.794 293.471 924.138 288.306 948.939 299.928C955.381 303.157 961.822 306.708 967.62 310.582C977.605 316.717 987.912 322.851 999.829 326.079C1010.78 328.985 1021.41 330.276 1032.36 330.276C1053.62 330.276 1074.88 325.756 1095.49 321.236C1100.64 319.945 1106.12 318.977 1111.59 318.008C1112.88 317.039 1113.85 316.071 1115.14 315.102C1114.49 315.102 1113.85 315.425 1112.88 315.425Z" fill="#262529"/>
<path d="M1092.59 327.047C1061.99 332.536 1030.75 338.67 999.829 330.922C988.555 328.016 977.927 322.85 967.942 317.362C961.178 313.811 954.092 310.259 946.684 307.354C927.037 299.605 904.813 299.605 879.046 306.708C878.079 307.031 877.113 307.354 876.147 307.676C876.791 308.322 877.435 308.968 878.079 309.291C878.724 308.968 879.368 308.968 879.69 308.645C905.135 301.542 926.715 301.542 946.04 309.291C953.448 312.196 960.534 315.748 967.298 319.299C977.605 324.465 987.911 329.953 999.506 332.859C1010.46 335.442 1021.09 336.733 1032.04 336.733C1052.65 336.733 1072.94 332.859 1092.91 329.307C1094.52 328.985 1096.13 328.662 1097.74 328.339C1099.35 327.37 1100.64 326.402 1102.25 325.433C1099.03 325.756 1095.81 326.402 1092.59 327.047Z" fill="#262529"/>
<path d="M998.54 337.056C986.945 334.473 975.672 329.953 965.043 325.433C958.279 322.528 951.515 319.622 944.43 317.362C925.426 310.905 906.745 310.259 884.199 315.102C884.843 315.748 885.487 316.394 886.132 316.716C907.712 312.196 925.748 312.842 943.785 318.976C950.549 321.236 957.635 324.142 964.077 327.048C975.028 331.567 985.979 336.41 997.896 338.993C1009.17 341.576 1020.76 342.544 1032.36 342.544C1048.46 342.544 1064.57 340.607 1080.35 338.347C1082.28 337.379 1084.22 336.41 1085.83 335.442C1057.16 339.639 1027.53 343.513 998.54 337.056Z" fill="#262529"/>
<path d="M996.608 345.449C1017.22 349.323 1038.16 349.323 1059.09 347.709C1061.67 346.741 1063.92 345.772 1066.5 344.804C1043.31 347.063 1020.12 347.709 997.252 343.189C985.013 340.929 973.418 337.378 962.144 334.15C939.92 327.693 918.985 321.558 895.15 323.495C896.116 324.141 897.083 324.787 898.049 325.433C920.595 324.141 940.565 329.952 961.822 336.087C972.451 339.638 984.369 342.866 996.608 345.449Z" fill="#262529"/>
<path d="M995.319 351.584C1007.88 353.521 1020.44 354.489 1033 354.812C1036.22 354.167 1039.77 353.521 1042.99 352.552C1027.21 352.875 1011.42 351.907 995.964 349.324C984.691 347.387 973.74 344.804 963.111 342.544C945.396 338.347 928.325 334.473 910.61 333.504C911.899 334.473 913.509 335.118 914.797 336.087C930.902 337.378 946.362 340.93 962.467 344.804C972.773 347.064 984.046 349.647 995.319 351.584Z" fill="#262529"/>
<path d="M1010.78 357.395C1005.3 357.072 999.507 356.426 993.709 355.458C984.046 354.166 974.062 352.552 964.399 350.615C955.381 349.001 946.04 347.387 936.699 346.095C940.565 347.387 944.43 349.001 948.295 349.969C953.448 350.938 958.601 351.584 963.755 352.552C973.095 354.166 982.758 355.781 992.421 357.072C994.675 357.072 996.93 357.072 998.862 357.072C1003.37 357.718 1007.24 357.718 1010.78 357.395Z" fill="#262529"/>
<defs>
<clipPath id="clip0_1_652">
<rect width="1060.53" height="351.187" fill="white"/>
</clipPath>
</defs>
</svg>
